<?xml version="1.0" standalone="no"?>
<!DOCTYPE svg PUBLIC "-//W3C//DTD SVG 1.1//EN" "http://www.w3.org/Graphics/SVG/1.1/DTD/svg11.dtd" >
<!--
2013-9-30: Created.
-->
<svg>
<metadata>
Created by iconfont
</metadata>
<defs>

<font id="iconfont" horiz-adv-x="1024" >
  <font-face
    font-family="iconfont"
    font-weight="500"
    font-stretch="normal"
    units-per-em="1024"
    ascent="896"
    descent="-128"
  />
    <missing-glyph />
    
    <glyph glyph-name="x" unicode="x" horiz-adv-x="1001"
d="M281 543q-27 -1 -53 -1h-83q-18 0 -36.5 -6t-32.5 -18.5t-23 -32t-9 -45.5v-76h912v41q0 16 -0.5 30t-0.5 18q0 13 -5 29t-17 29.5t-31.5 22.5t-49.5 9h-133v-97h-438v97zM955 310v-52q0 -23 0.5 -52t0.5 -58t-10.5 -47.5t-26 -30t-33 -16t-31.5 -4.5q-14 -1 -29.5 -0.5
t-29.5 0.5h-32l-45 128h-439l-44 -128h-29h-34q-20 0 -45 1q-25 0 -41 9.5t-25.5 23t-13.5 29.5t-4 30v167h911zM163 247q-12 0 -21 -8.5t-9 -21.5t9 -21.5t21 -8.5q13 0 22 8.5t9 21.5t-9 21.5t-22 8.5zM316 123q-8 -26 -14 -48q-5 -19 -10.5 -37t-7.5 -25t-3 -15t1 -14.5
t9.5 -10.5t21.5 -4h37h67h81h80h64h36q23 0 34 12t2 38q-5 13 -9.5 30.5t-9.5 34.5q-5 19 -11 39h-368zM336 498v228q0 11 2.5 23t10 21.5t20.5 15.5t34 6h188q31 0 51.5 -14.5t20.5 -52.5v-227h-327z" />
    

    
    <glyph glyph-name="gouwuche" unicode="&#58880;" d="M347.136 112.64q19.456 0 36.864-7.168t30.72-19.968 20.48-30.208 7.168-36.864-7.168-36.864-20.48-30.208-30.72-20.48-36.864-7.68q-20.48 0-37.376 7.68t-30.208 20.48-20.48 30.208-7.168 36.864 7.168 36.864 20.48 30.208 30.208 19.968 37.376 7.168zM773.12 110.592q19.456 0 37.376-7.168t30.72-19.968 20.48-30.208 7.68-36.864-7.68-36.864-20.48-30.208-30.72-20.48-37.376-7.68-36.864 7.68-30.208 20.48-20.48 30.208-7.68 36.864 7.68 36.864 20.48 30.208 30.208 19.968 36.864 7.168zM945.152 692.224q28.672 0 44.544-7.68t22.528-18.944 6.144-24.064-3.584-22.016-12.8-37.888-22.016-62.976-24.064-68.096-17.92-53.248q-13.312-40.96-33.792-56.832t-50.176-15.872l-34.816 0-66.56 0-87.04 0-95.232 0-253.952 0 15.36-92.16 516.096 0q49.152 0 49.152-41.984 0-20.48-9.728-35.328t-38.4-14.848l-49.152 0-95.232 0-117.76 0-119.808 0-98.304 0-56.32 0q-20.48 0-34.304 9.216t-23.04 24.064-14.848 32.256-8.704 32.768q-1.024 6.144-5.632 29.696t-11.264 58.88-14.848 78.848-16.384 87.552q-19.456 103.424-44.032 230.4l-76.8 0q-15.36 0-25.6 7.68t-16.896 18.432-9.216 23.04-2.56 22.528q0 20.48 13.824 33.792t37.376 13.312l22.528 0 20.48 0 25.6 0 34.816 0q20.48 0 32.768-6.144t19.456-15.36 10.24-19.456 5.12-17.408q2.048-8.192 4.096-23.04t4.096-30.208q3.072-18.432 6.144-38.912l700.416 0z"  horiz-adv-x="1024" />

    
    <glyph glyph-name="dianying" unicode="&#58881;" d="M844.58 12.5799c-37.2343 0-62.797 31.1329-76.3264 53.4188 70.699 70.4972 114.4501 168.0051 114.4501 275.7341 0 215.0542-174.3429 389.39-389.395 389.39-215.075 0-389.4219-174.3358-389.4219-389.39 0-215.0552 174.3469-389.39 389.4219-389.39 71.6194 0 138.7196 19.3409 196.3719 53.076 37.718-52.5524 122.5279-73.754 122.5279-73.754h110.57756209294679v80.915139535395C922.7872 12.5799 902.5661 12.5799 844.58 12.5799zM280.944 235.4478c-58.6616 0-106.2223 47.5468-106.2223 106.206 0 58.6482 47.5597 106.19 106.2223 106.19 58.6346 0 106.1994-47.5418 106.1994-106.19C387.1424 282.9945 339.5787 235.4478 280.944 235.4478zM493.5986 22.7939c-58.6616 0-106.1984 47.5428-106.1984 106.191 0 58.6592 47.5357 106.202 106.1984 106.202 58.6576 0 106.1954-47.5428 106.1954-106.202C599.7929 70.3377 552.2562 22.7939 493.5986 22.7939zM437.4623 341.6428c0 31.01 25.148 56.1419 56.1592 56.1419s56.1592-25.131 56.1592-56.1419-25.148-56.1459-56.1592-56.1459S437.4623 310.6328 437.4623 341.6428zM493.5986 456.4199c-58.6616 0-106.1984 47.5468-106.1984 106.199s47.5357 106.198 106.1984 106.198c58.6576 0 106.1954-47.5458 106.1954-106.198S552.2562 456.4199 493.5986 456.4199zM608.3655 341.6548c0 58.6482 47.5597 106.19 106.1994 106.19 58.6606 0 106.2173-47.5418 106.2173-106.19 0-58.6592-47.5567-106.206-106.2173-106.206C655.9252 235.4478 608.3655 282.9945 608.3655 341.6548z"  horiz-adv-x="1000" />

    
    <glyph glyph-name="fangdajing" unicode="&#58892;" d="M870.44096 11.8464l-176.41472 176.49664c-2.08896 2.08896-4.34176 3.60448-6.47168 5.28384 29.77792 45.71136 47.14496 100.18816 47.14496 158.9248 0 161.21856-130.62144 291.84-291.88096 291.84-161.13664 0-291.88096-130.62144-291.88096-291.84 0-161.25952 130.74432-291.88096 291.88096-291.88096 58.65472 0 113.21344 17.44896 159.00672 47.26784 1.67936-2.2528 3.19488-4.38272 5.24288-6.47168l176.45568-176.49664c12.00128-12.00128 27.72992-17.94048 43.45856-17.94048s31.41632 5.9392 43.45856 17.94048C894.3616-51.0272 894.3616-12.15616 870.44096 11.8464M442.85952 152.78976c-110.10048 0-199.68 89.62048-199.68 199.72096s89.62048 199.68 199.68 199.68 199.72096-89.62048 199.72096-199.68S552.91904 152.78976 442.85952 152.78976"  horiz-adv-x="1024" />

    
    <glyph glyph-name="shuidianmei" unicode="&#58949;" d="M509.951853 746.161503c0 0-387.233392-306.303174-387.233392-514.800789 0-208.502731 173.369559-377.522216 387.233392-377.522216S897.187291 22.857982 897.187291 231.360713C897.187291 439.858328 509.951853 746.161503 509.951853 746.161503zM476.278939 22.199996l33.672914 168.361499L341.588307 190.561495l218.873939 269.38331-33.675984-168.361499 168.366615 0L476.278939 22.199996z"  horiz-adv-x="1024" />

    
    <glyph glyph-name="bangongxitong" unicode="&#59082;" d="M894.125559 697.551388 129.313669 697.551388c-35.19764 0-63.73458-28.505217-63.73458-63.733557l0-509.843894c0-35.19764 28.535917-63.733557 63.73458-63.733557l318.671876 0 0-95.602382L288.648584-35.362001c-17.582447 0-31.868825-14.283308-31.868825-31.866778l0-31.864732 509.875616 0L766.655376-67.227756c0 17.58347-14.284331 31.866778-31.867802 31.866778L575.451636-35.360977l0 95.602382 318.671876 0c35.19764 0 63.735603 28.535917 63.735603 63.733557L957.859116 633.817832c0 35.228339-28.537963 63.733557-63.735603 63.733557L894.125559 697.551388zM479.852324 123.973938c0 17.58347 14.283308 31.866778 31.866778 31.866778 17.582447 0 31.866778-14.283308 31.866778-31.866778 0-17.615193-14.284331-31.900547-31.866778-31.900547C494.137679 92.075437 479.852324 106.358745 479.852324 123.973938zM129.312646 187.708518 129.312646 633.817832l764.810866 0L894.123512 187.708518 129.312646 187.708518 129.312646 187.708518z"  horiz-adv-x="1024" />

    
    <glyph glyph-name="svgmoban14" unicode="&#58899;" d="M0.064 116.128c1.664 86.656 18.88 170.624 47.104 252.416 22.912 66.688 52.608 130.112 95.488 186.496 27.008 35.776 58.048 67.072 99.136 86.72 35.648 17.344 72.064 23.168 110.208 6.144 26.496-12.032 53.824-22.08 80.64-33.536 56.512-24.32 112.384-21.76 168.128 3.072 22.144 9.792 44.864 18.304 66.944 28.736 44.224 20.672 86.272 13.12 126.976-9.536 44.928-25.088 77.696-62.72 105.6-105.216 51.008-77.056 82.624-162.56 103.744-252.16 14.72-62.784 22.144-126.208 19.392-190.656-1.344-31.36-6.208-62.4-19.136-91.52-19.84-44.8-53.184-61.056-100.736-49.344-29.056 7.104-54.656 21.696-78.272 39.168-38.784 28.736-76.416 58.816-115.264 87.552-42.56 31.488-87.744 59.008-140.352 69.824-87.104 17.792-167.744 1.408-238.272-53.312-34.432-26.56-65.344-57.664-97.792-86.848-30.528-27.2-63.36-50.624-104.448-58.56-13.248-2.56-27.008-4.096-40.384-3.84-34.88 0.832-55.296 22.4-68.544 51.776-16.192 35.84-19.264 74.176-20.16 112.896C-0.064 109.6 0.064 112.864 0.064 116.128zM295.616 255.008c77.248 0 139.264 61.952 139.776 139.008 0.384 77.056-62.528 140.224-139.904 140.48-76.352 0.192-139.456-62.784-139.84-139.584C155.328 317.984 218.176 255.008 295.616 255.008zM792.704 456.16c0.192 17.216-13.312 31.232-30.144 31.616-17.344 0.384-32-13.952-31.936-31.04 0.128-16.96 13.888-30.592 30.976-30.656C778.944 426.016 792.576 439.136 792.704 456.16zM697.536 363.36c0.064 17.024-13.76 31.04-30.656 31.04-16.832 0.064-31.04-13.568-31.424-30.336-0.448-17.088 13.76-31.424 31.232-31.296C683.968 332.896 697.408 346.272 697.536 363.36zM854.528 332.768c17.472-0.064 31.04 12.992 31.36 30.016 0.256 17.152-13.12 31.232-29.952 31.616-17.344 0.576-32-13.632-32.128-30.784C823.808 346.784 837.632 332.96 854.528 332.768zM792.704 270.368c0 17.024-13.888 30.976-30.656 30.848-16.96 0-31.04-13.76-31.36-30.528-0.256-17.344 13.952-31.36 31.424-31.232C779.328 239.712 792.768 253.152 792.704 270.368zM295.68 317.216c-43.136-0.064-78.016 34.624-77.824 77.312 0.128 42.56 34.688 77.312 77.184 77.824 42.624 0.384 77.824-34.496 78.208-77.44C373.504 351.84 338.944 317.216 295.68 317.216z"  horiz-adv-x="1024" />

    
    <glyph glyph-name="hanglvxingye" unicode="&#59086;" d="M939.041026 314.69263c-41.194214-13.879102-82.385359-27.771507-123.58162-41.641399-41.767266-76.54228-170.163541-310.290999-181.548846-331.555302-1.746784-3.2623-31.93841-45.958728-60.364833-5.238304-40.173978 57.545624-98.486058 147.110499-138.504494 204.759477-0.777713 1.12052-1.357927 2.62785-1.958608 3.997034-69.790506-23.38664-139.561569-46.823422-209.222115-70.571289-29.107945-9.923-53.032844 8.071839-57.701167 33.901111-7.466042 41.310871-75.431993 409.856645-101.562117 547.920094 2.87242-15.193027-12.950963 41.224914 37.148062 23.845081 124.941594-43.339064 249.861698-86.73748 374.796128-130.098034 154.279782-53.54859 307.869856-117.235075 462.143499-170.797991 17.137309-5.949502 26.530236-17.561981 26.370601-32.216749C964.880531 331.4155 956.180382 320.465101 939.041026 314.69263zM814.322513 272.667491c-10.585079-3.564175-21.171182-7.129374-31.754215-10.698666C792.34292 269.727533 810.250778 273.948671 814.322513 272.667491zM715.420993 247.32429c-42.214451 27.185152-84.627423 54.073546-126.951367 81.09497-149.07013 95.180779-297.425993 200.549595-446.505333 295.715025-3.180436 2.030239-6.578836 3.733021-9.873882 5.589298-0.467651-0.717338-0.934279-1.434675-1.401929-2.153036C282.712897 487.741895 434.032254 337.745672 586.8088 197.228335c-1.255597-0.565888-2.586918-1.558495-6.167466-2.759857-41.875736-14.06432-35.877115-11.273764 6.081509 2.796696 6.02011-61.196781 15.673981-155.271366 21.568225-215.193107 3.006474-0.230244 1.945305-2.602268 6.864338 6.847965 37.006845 71.118757 76.761268 182.936449 113.89091 253.993808 0.267083 0.51063 0.598634 1.047866 0.908696 1.578961C724.721823 243.310883 720.302163 244.180693 715.420993 247.32429z"  horiz-adv-x="1024" />

    
    <glyph glyph-name="caipiao" unicode="&#58900;" d="M512.64 432.608 457.472 465.184 359.936 300 351.04 300 233.728 460.448 182.016 422.688 271.744 300 192 300 192 236 320 236 320 172 192 172 192 108 320 108 320 44 384 44 384 108 512 108 512 172 384 172 384 236 512 236 512 300 434.304 300ZM896 620 128 620C57.408 620 0 562.592 0 492l0-448c0-70.592 57.408-128 128-128l768 0c70.592 0 128 57.408 128 128l0 32.64 0 64-64 5.248c-50.112 17.344-86.4 64.576-86.4 120.512 0 55.936 36.224 103.104 86.4 120.448l64 5.312 0 64L1024 492C1024 562.592 966.592 620 896 620zM128-20c-35.264 0-64 28.672-64 64L64 492c0 35.264 28.736 64 64 64l512 0 0-576L128-20zM960 453.536c-85.888-19.072-150.4-95.616-150.4-187.136 0-91.584 64.512-168.064 150.4-187.2L960 44c0-35.328-28.672-64-64-64l-192 0L704 556l192 0c35.328 0 64-28.736 64-64L960 453.536z"  horiz-adv-x="1024" />

    
    <glyph glyph-name="yinle" unicode="&#58936;" d="M985.619 661.883c0 59.069-48.055 107.126-107.124 107.126l-2.693 0-510.176-92.76c-57.728-1.549-104.218-48.991-104.218-107.087l0-489.104c-22.269 15.402-49.249 24.454-78.315 24.454-76.111 0-138.033-61.919-138.033-138.032 0-76.114 61.921-138.033 138.033-138.033 76.112 0 138.033 61.919 138.033 138.033 0 7.217 0 592.448 0 592.448 0 39.366 50.099 57.641 50.099 57.641l509.641 92.662c25.044-1.239 45.036-22.002 45.036-47.35l0-473.65c-22.268 15.402-49.248 24.454-78.314 24.454-76.112 0-138.032-61.919-138.032-138.033 0-76.113 61.919-138.032 138.032-138.032s138.032 61.921 138.032 138.033C985.619 81.872 985.619 661.883 985.619 661.883z"  horiz-adv-x="1024" />

    
    <glyph glyph-name="iconfonthot" unicode="&#58915;" d="M544-148c-186.432 0-339.456 145.696-351.264 329.152C192.256 183.36 192 185.664 192 188c0 158.144-54.272 217.024-54.848 217.568-7.744 8.16-10.816 19.968-7.84 30.784 3.008 10.816 11.328 19.488 22.144 22.464 9.152 2.528 91.104 23.968 149.344-1.536 16.192-7.072 23.584-25.952 16.512-42.112-7.072-16.192-25.984-23.584-42.112-16.512-16.864 7.36-40.448 7.872-61.792 6.08 18.88-37.632 39.744-100.416 42.336-196.64C255.904 206.816 256 205.408 256 204c0-158.816 129.216-288 288-288 158.816 0 288 129.184 288 288 3.328 131.744-30.88 225.984-63.232 284.96-3.968-48.608-16.032-98.848-47.008-119.552-8.352-5.6-18.848-6.944-28.416-3.584-9.504 3.328-16.864 10.976-19.904 20.576-28.832 91.744-149.536 201.568-221.504 260.768 1.664-87.904-6.976-236.064-73.536-333.248-9.984-14.624-29.92-18.304-44.48-8.32-14.592 9.984-18.304 29.92-8.32 44.48 84.384 123.2 58.88 359.968 58.624 362.336-1.408 12.608 4.736 24.832 15.68 31.232s24.64 5.696 34.88-1.728c8.768-6.368 186.336-136.128 267.776-268.768 4.096 31.232 5.024 72.512 1.568 112.064-1.152 13.088 5.824 25.568 17.6 31.424 11.776 5.92 25.952 3.968 35.68-4.832 5.984-5.344 145.568-134.368 138.592-408.608C896 9.92 738.08-148 544-148z"  horiz-adv-x="1024" />

    
    <glyph glyph-name="huatong" unicode="&#58932;" d="M536.043602 1.777875l0-51.068096 24.731264 0c13.663184 0 24.743544-11.18883 24.743544-24.972764 0-13.81975-11.08036-24.972764-24.743544-24.972764l-98.937336 0c-13.663184 0-24.718985 11.165294-24.718985 24.972764 0 13.796214 11.056823 24.972764 24.718985 24.972764l24.743544 0 0 51.068096c-122.111129 11.117199-225.490637 103.789854-247.324922 223.63129L288.729937 225.409165c22.509666-100.07116 116.679419-174.821631 222.581378-174.821631 105.889679 0 200.071711 74.749448 222.581378 174.821631l49.474808 0C761.53424 105.566706 658.130172 12.893027 536.043602 1.777875L536.043602 1.777875zM511.312338 100.545342c-95.617731 0-173.131129 78.261435-173.131129 174.808328L338.181209 525.092571c0 96.534614 77.513398 174.808328 173.131129 174.808328s173.118849-78.273714 173.118849-174.808328l0-249.738901C684.431188 178.805754 606.930069 100.545342 511.312338 100.545342L511.312338 100.545342z"  horiz-adv-x="1024" />

    
    <glyph glyph-name="fangdichanpin" unicode="&#59042;" d="M884.906593 316.355503l0.183172 0.186242L573.575916 633.603961c-34.605146 35.220153-90.709955 35.220153-125.313054 0L136.193357 315.974833l0.168846-0.171915c-6.709819-6.562463-10.894118-15.786545-10.894118-26.00528 0-19.923772 15.869433-36.077683 35.443233-36.077683 11.1919 0 21.162995 5.28333 27.658943 13.528108l18.84009 19.174712 0-90.195232c0-0.278339 0.014326-0.554632 0.020466-0.831948l-0.010233 0L207.420585 36.924349c0-49.810453 39.891546-90.188068 89.100294-90.188068l125.794008 0 0 0.026606c19.194154 0.559748 34.585703 16.283872 34.585703 35.615149L456.900589 124.945055l142.56702 0c19.683295 0 35.640732 15.95846 35.640732 35.641755 0 19.684318-15.957437 35.641755-35.640732 35.641755L421.257811 196.228565c-19.684318 0-35.641755-15.957437-35.641755-35.641755l0-141.699256-71.137177 0c-19.669992 0-35.615149 16.149818-35.615149 36.07359L278.86373 195.396617l-0.192382 0c0.00614 0.277316 0.021489 0.552585 0.021489 0.831948L278.692838 338.793538c0 5.840008-1.413186 11.345396-3.901867 16.211217L485.857085 569.831518c13.842263 14.087856 36.284391 14.087856 50.125631 0l208.093409-211.800847c-0.843204-2.306532-1.589195-4.864798-2.215458-7.718799l0-154.916279 0-4.719488 0-135.715985c0-19.923772-15.94618-36.075637-35.616172-36.075637l-105.697297 0 0-0.028653c-0.372483 0.01228-0.743944 0.028653-1.11745 0.028653-19.573801 0-35.443233-16.151865-35.443233-36.075637s15.869433-36.07359 35.443233-36.07359c0.375553 0 0.74599 0.01535 1.11745 0.028653l0-0.028653 123.656321 0c49.210795 0 89.102341 40.375569 89.102341 90.188068L813.305859 190.677129l0 4.719488 0 92.171236 19.955494-20.310581c6.495948-8.247848 16.471137-13.537318 27.66406-13.537318 19.574824 0 35.44528 16.153912 35.44528 36.077683C896.370693 300.305969 891.952057 309.763364 884.906593 316.355503z"  horiz-adv-x="1024" />

    
    <glyph glyph-name="dingwei1" unicode="&#58898;" d="M536.380952 763.286857C334.409143 763.286857 170.666667 596.96 170.666667 391.769905s365.714286-603.721143 365.714286-603.721143S902.095238 186.57981 902.095238 391.769905 738.352762 763.286857 536.380952 763.286857zM536.380952 298.878476c-75.776 0-137.167238 62.366476-137.167238 139.312762S460.604952 577.504 536.380952 577.504c75.727238 0 137.167238-62.366476 137.167238-139.312762S612.10819 298.878476 536.380952 298.878476z"  horiz-adv-x="1024" />

    
    <glyph glyph-name="youxi" unicode="&#58950;" d="M809.642667-158.752 535.210667-158.752c-194.56 0-354.304 159.744-354.304 354.304s159.744 354.304 354.304 354.304L631.466667 549.856c10.24 0 18.432 8.192 18.432 18.432L649.898667 771.04c0 12.288 8.192 20.48 20.48 20.48s20.48-8.192 20.48-20.48l0-202.752c0-32.768-26.624-59.392-59.392-59.392l-96.256 0c-172.032 0-313.344-141.312-313.344-313.344s141.312-313.344 313.344-313.344l274.432 0C981.674667-117.792 1122.986667 23.52 1122.986667 195.552s-141.312 313.344-313.344 313.344c-12.288 0-20.48 8.192-20.48 20.48 0 12.288 8.192 20.48 20.48 20.48 194.56 0 354.304-159.744 354.304-354.304S1006.250667-158.752 809.642667-158.752zM475.818667 76.768c-65.536 0-118.784 53.248-118.784 118.784s53.248 118.784 118.784 118.784 118.784-53.248 118.784-118.784C594.602667 130.016 541.354667 76.768 475.818667 76.768zM475.818667 273.376c-43.008 0-77.824-34.816-77.824-77.824s34.816-77.824 77.824-77.824 77.824 34.816 77.824 77.824S518.826667 273.376 475.818667 273.376zM791.210667 195.552m-38.912 0a22.8 22.8 0 1 0 77.824 0 22.8 22.8 0 1 0-77.824 0ZM914.090667 195.552m-38.912 0a22.8 22.8 0 1 0 77.824 0 22.8 22.8 0 1 0-77.824 0Z"  horiz-adv-x="1366" />

    
    <glyph glyph-name="mian" unicode="&#58954;" d="M512 850.823529c257.415529 0 466.823529-209.408 466.823529-466.823529S769.415529-82.823529 512-82.823529 45.176471 126.584471 45.176471 384 254.584471 850.823529 512 850.823529M512 896C229.225412 896 0 666.774588 0 384s229.225412-512 512-512 512 229.225412 512 512S794.774588 896 512 896L512 896zM794.292706 168.297412c-1.987765-45.056-19.245176-58.307765-78.215529-58.307765l-108.664471 0c-54.362353 0-71.559529 14.546824-71.559529 67.584l0 128.572235-16.564706 0c-33.792-100.743529-108.664471-157.726118-267.715765-218.021647l-19.877647 35.117176c145.106824 51.019294 215.371294 100.050824 247.838118 182.904471L298.616471 306.145882l0 171.640471c-17.889882-14.546824-37.104941-29.153882-57.645176-43.068235l-15.902118 33.129412c85.473882 59.000471 155.738353 130.56 206.095059 212.058353l33.129412-15.239529c-11.264-17.889882-22.528-34.454588-34.454588-49.694118l248.500706 0 0-31.141647-86.799059-91.437176 162.996706 0 0-186.217412-183.567059 0 0-116.645647c0-35.779765 10.631529-44.393412 48.368941-44.393412l86.829176 0c43.700706 0 53.007059 7.288471 54.332235 41.080471 1.325176 17.889882 2.650353 53.007059 3.312941 75.535059l35.117176-7.288471C797.605647 233.231059 796.310588 192.150588 794.292706 168.297412zM315.843765 492.363294l228.623059 0 85.473882 89.479529-225.972706 0C377.464471 549.345882 348.310588 520.192 315.843765 492.363294zM334.396235 339.275294l156.400941 0c8.613647 33.822118 13.251765 72.914824 15.239529 119.958588l-171.640471 0L334.396235 339.275294zM528.564706 339.275294l190.192941 0 0 119.958588-175.646118 0C541.153882 413.515294 536.545882 373.729882 528.564706 339.275294z"  horiz-adv-x="1024" />

    
    <glyph glyph-name="dianhua" unicode="&#58895;" d="M752.881958-128c-66.06485 0-151.355467 44.010242-211.273685 80.940261-80.243023 49.444864-166.687334 117.852554-243.416096 192.607776l-0.276237 0.276237-24.361995 24.367904C198.792815 246.915031 130.392511 333.365251 80.940261 413.606796 44.016151 473.526491 0 558.817108 0 624.881958c0 70.697351 50.554242 145.734718 72.291251 174.712966C89.249516 822.20939 148.50447 896 198.850426 896c20.674902 0 42.937795-13.531159 72.198187-43.877294 25.880557-26.831875 50.715257-60.184113 66.9881-83.439685 21.85814-31.222115 42.070678-63.911091 56.923931-92.053243 24.050306-45.56278 26.831875-65.100238 26.831875-75.833578 0-21.661672-11.315358-40.450188-33.624044-55.839666-14.690762-10.13212-32.324107-17.760385-49.375435-25.14048-11.501485-4.973735-29.867522-12.913689-36.872408-18.500462 2.446244-10.350746 13.126406-35.347937 41.99534-77.731781 26.901303-39.491485 61.684949-82.290423 93.110918-114.562828 32.266496-31.42006 75.059525-66.209615 114.562828-93.110918 42.372027-28.857117 67.369218-39.543187 77.72735-41.989432 5.579387 7.004886 13.52525 25.365014 18.498985 36.866499 7.374186 17.05576 15.002451 34.690583 25.14048 49.381344 15.389478 22.308686 34.177994 33.618135 55.839666 33.618135 10.733341 0 30.270798-2.781569 75.839487-26.825966 28.136243-14.853254 60.831127-35.065792 92.048811-56.923931 23.254094-16.278752 56.606333-41.113452 83.444117-66.9881 30.340226-29.260393 43.871385-51.523285 43.871385-72.198187 0-50.345956-73.784701-109.600911-96.399167-126.560653C898.616677-77.445758 823.579309-128 752.881958-128L752.881958-128zM340.528751 188.720707"  horiz-adv-x="1024" />

    
    <glyph glyph-name="caidan" unicode="&#58945;" d="M377.724 417.205h415.79v-66.41h-415.79v66.41zM377.724 629.979h415.79v-66.41h-415.79v66.41zM230.486 648.475h103.402v-103.402h-103.402v103.402zM230.486 435.7h103.402v-103.402h-103.402v103.402zM230.486 222.927h103.402v-103.402h-103.402v103.402zM377.724 204.431h415.79v-66.41h-415.79v66.41z"  horiz-adv-x="1024" />

    
    <glyph glyph-name="xiexue" unicode="&#58904;" d="M413.184065 632.98196l96.217553 0 0-96.217553-96.217553 0 0 96.217553ZM940.842306-4.770797 98.053021-4.770797l-0.351784 46.081935c-0.88419 115.176885 66.000286 335.453644 319.038508 384.268138l0 71.985768 92.867438 0 0-153.505818-41.343608-4.556845c-208.044322-22.945066-260.27086-173.559205-273.353082-251.40574l653.064375 0L847.974869 706.640635 503.860811 706.640635l0-32.7391L410.993373 673.901535 410.993373 799.508073l529.848934 0L940.842306-4.770797z"  horiz-adv-x="1024" />

    
    <glyph glyph-name="zhubao" unicode="&#58906;" d="M180.234124 376.698509l64.186999 54.739051 54.739051-64.186999-64.186999-54.739051-54.739051 64.186999ZM802.556076 708.864011 238.74669 709.718097 113.580527 465.739378 162.235901 403.233705 228.799557 455.050832 213.198082 475.099919 290.234396 625.278844 746.887392 624.589039 811.061671 474.739534 507.181682 120.638777 314.371569 341.711135 250.795064 286.269519 507.696886-8.296374 909.278972 459.663584Z"  horiz-adv-x="1024" />

    
    <glyph glyph-name="baihuo" unicode="&#58907;" d="M302.531635 718.159125l34.555396-79.107081-79.107081-34.555396-34.555396 79.107081 79.107081 34.555396ZM837.449743 354.221387l90.122837 184.731131L704.54434 538.952518c0.07741 31.867812 0.127296 51.972806 0.127296 51.972806l-0.100632 0c0.332001 2.857274 0.558209 5.711968 0.558209 8.556341 0 64.293834-84.467636 133.493716-269.941039 133.493716-33.971633 0-66.971346-2.759222-98.071083-8.186495l14.409367-82.475629c26.357109 4.609312 54.50496 6.939341 83.661716 6.939341 114.873267 0 178.860043-35.146539 185.943881-49.771793-7.083839-14.614933-71.080936-49.761472-185.943881-49.761472-117.459608 0-181.732799 36.751498-186.218255 49.761472l-62.436004 55.772757c0-4.567166-16.489965-19.961356-19.952755-69.522422 0.124715-50.755755 1.12674-456.680519 1.12674-463.373009 0-84.488279 112.671394-145.807864 267.917208-145.807864s267.917208 61.319585 267.917208 145.807864c0 1.238554 0.034404 16.145922 0.090311 39.930452l219.851867 0L837.449743 354.221387zM620.223782 122.35899c0-18.134489-64.686043-62.48933-184.598675-62.48933s-184.598675 44.354841-184.598675 62.48933c0 5.091832-0.579712 241.287445-0.911713 376.399882 43.755347-19.840941 104.974299-32.761463 185.072593-32.761463 80.618659 0 142.130908 13.080502 185.941301 33.14163C620.798334 364.090251 620.223782 127.454262 620.223782 122.35899zM703.831312 245.607976c0.155679 64.576809 0.348343 143.769411 0.509183 210.025148L794.213901 455.633124l-48.748266-99.927193L794.824577 245.607976 703.831312 245.607976z"  horiz-adv-x="1024" />

    
    <glyph glyph-name="meishi" unicode="&#58911;" d="M205.207703 411.983129l83.070437 10.355551 10.355551-83.070437-83.070437-10.355551-10.355551 83.070437ZM684.344735 571.517877 690.222704 634.766681 820.063547 677.104572 793.593764 758.264238 610.410825 698.544451 598.603281 571.517877 183.0264 571.517877 198.922031 448.402207 283.584051 459.337604 280.123842 486.147989 744.711322 486.147989 693.467026 94.521638 331.513495 94.521638 301.014973 308.308032 216.353813 297.358874 256.468328 9.15175 768.388338 9.15175 841.975625 571.517877Z"  horiz-adv-x="1024" />

    
    <glyph glyph-name="wode" unicode="&#58905;" d="M93.184-128l106.558061 250.786909c0 0 22.869333 83.595636 104.882424 83.595636l429.924848 0c82.044121 0 107.48897-83.595636 107.48897-83.595636L930.816-128 93.184-128zM510.510545 227.265939c-183.078788 0-331.496727 149.690182-331.496727 334.382545C179.013818 746.309818 327.431758 896 510.510545 896c183.078788 0 331.496727-149.690182 331.496727-334.351515C842.007273 376.956121 693.620364 227.265939 510.510545 227.265939zM456.145455 805.081212c-101.593212-36.584727 22.807273-167.098182-199.897212-243.432727 0-141.653333 113.850182-256.496485 254.293333-256.496485 140.443152 0 254.293333 114.843152 254.293333 256.496485C635.345455 669.354667 417.885091 619.582061 456.145455 805.081212z"  horiz-adv-x="1024" />

    
    <glyph glyph-name="kefu-copy" unicode="&#58921;" d="M940.189 99.395h-148.713c-15.385 0-30.768 15.385-30.768 30.768v384.601c0 133.328-112.816 235.889-246.145 235.889-133.328 0-241.017-102.56-246.145-235.889v-333.321c0 0 41.024-143.584 143.584-128.201 5.129 25.641 35.897 35.897 51.28 35.897h107.689c35.897 0 66.665-30.768 66.665-66.665v-15.385c0-35.897-30.768-66.665-66.665-66.665h-102.56c-25.641 0-51.28 15.385-61.536 41.024 0 0-15.385 0-25.641 0-97.433 35.897-143.584 117.945-143.584 117.945 0 0-5.129 0-5.129 0h-148.713c-15.385 0-30.768 15.385-30.768 30.768v338.449c0 15.385 15.385 30.768 30.768 30.768h107.689c0 25.641 0 15.385 0 15.385 0 312.809 312.809 312.809 312.809 312.809 0 0 10.256 0 10.256 0 0 0 312.809 0 317.937-312.809 0 0 0 10.256 0-15.385h107.689c20.512 0 30.768-15.385 30.768-30.768v-333.321c0-20.512-15.385-35.897-30.768-35.897v0zM196.627 401.948c0 10.256-5.129 20.512-15.385 20.512h-51.28c-10.256 0-15.385-5.129-15.385-20.512v-205.12c0-10.256 5.129-20.512 15.385-20.512h56.409c5.129 0 15.385 10.256 15.385 20.512v205.12h-5.129zM909.421 401.948c0 10.256-5.129 20.512-15.385 20.512h-56.409c-5.129 0-15.385-10.256-15.385-20.512v-205.12c0-10.256 5.129-20.512 15.385-20.512h56.409c5.129 0 15.385 10.256 15.385 20.512v205.12zM909.421 401.948z"  horiz-adv-x="1024" />

    
    <glyph glyph-name="weibo3" unicode="&#58922;" d="M463.617656-61.557707C267.011559-70.773618 108.088298 27.816148 108.088298 159.009758 108.088298 290.408166 267.011559 395.756266 463.617656 404.808339 660.387591 413.901371 819.63853 332.801356 819.63853 201.771584 819.63853 70.577974 660.387591-52.587554 463.617656-61.557707M882.306723 364.749847C835.612775 373.801919 858.263436 398.910156 858.263436 398.910156 858.263436 398.910156 904.015313 474.275826 849.252323 528.997857 781.42322 596.86792 616.519856 520.39634 616.519856 520.39634 553.605905 500.817649 570.276464 529.284574 579.205657 577.698825 579.205657 634.755553 559.626967 731.338298 391.89739 674.28157 224.372612 616.938125 80.481525 416.07223 80.481525 416.07223-11.636623 293.07054-40.963699 117.394801 80.358646 2.871749 196.72488-106.940948 380.060065-135.039236 534.150093-126.601557 679.679565-118.614435 843.845656-69.626749 945.056836 40.800342 965.24992 62.836609 982.657752 87.53525 995.396189 114.650507 1076.455244 287.131398 929.16451 355.370097 882.306723 364.749847M491.109742 157.596652C478.576103 148.257862 463.216252 149.609529 456.621756 160.791501 449.699583 171.727715 452.280038 189.258425 464.936555 198.474336 479.600093 209.328631 494.837066 206.215701 501.431562 195.279487 508.067018 184.097515 503.315704 167.263118 491.109742 157.596652M374.53871 58.310573C337.634108 54.009814 307.856476 75.267849 307.856476 106.192349 307.856476 136.912052 334.31638 169.14726 371.220983 172.997463 413.614172 177.011504 441.261905 152.59958 441.261905 121.716039 441.261905 90.955377 411.320434 62.529412 374.53871 58.310573M424.386548 318.322136C326.779813 306.894407 255.919699 241.809597 249.202324 142.523518 247.195303 112.663967 251.6599 79.855324 268.248539 53.764057 309.085264-10.419642 397.31225-16.932219 464.936555-3.497469 535.75571 10.592635 607.107339 60.809109 621.934716 135.150789 627.996737 165.419936 623.450221 196.672113 611.858653 225.098078 580.852233 301.160062 501.144845 327.21037 424.386548 318.322136M1168.520145 468.537386C1169.462216 472.182791 1170.03565 475.951074 1170.07661 479.924156 1172.738984 497.413906 1174.377368 515.149415 1174.377368 532.884923 1174.377368 728.057434 1015.617945 886.857816 820.445434 886.857816 793.412096 886.857816 771.539667 864.903469 771.539667 837.91109 771.539667 810.877752 793.412096 788.964364 820.445434 788.964364 961.674147 788.964364 1076.524875 674.072676 1076.524875 532.884923 1076.524875 517.156435 1075.091289 501.386988 1072.224117 486.068096L1072.797551 485.945217C1072.633713 484.102035 1072.265076 482.299813 1072.265076 480.374711 1072.265076 453.382333 1094.178464 431.468945 1121.211803 431.468945 1144.026302 431.468945 1162.990598 447.115513 1168.438226 468.209709L1168.479185 468.209709C1168.479185 468.332588 1168.479185 468.455467 1168.520145 468.537386M1015.310748 514.510445C1015.884182 520.613426 1016.498576 526.634487 1016.498576 532.901307 1016.498576 640.9937 928.558308 728.933969 820.465914 728.933969 797.938132 728.933969 779.670149 710.665986 779.670149 688.138204 779.670149 665.610422 797.938132 647.342439 820.465914 647.342439 883.584663 647.342439 934.948006 596.020056 934.948006 532.901307 934.948006 527.904235 934.620329 522.989083 934.005935 518.15585L934.948006 518.032971C934.784167 516.435546 934.005935 515.00196 934.005935 513.281657 934.005935 490.753875 952.273918 472.526851 974.8017 472.526851 995.40438 472.526851 1011.706303 488.050541 1014.491556 507.915949L1014.901152 507.834029C1015.024031 508.85802 1014.942111 509.963929 1015.10595 510.987919 1015.10595 511.766151 1015.556505 512.462465 1015.556505 513.281657 1015.556505 513.732212 1015.310748 514.100849 1015.310748 514.510445"  horiz-adv-x="1188" />

    
    <glyph glyph-name="iconfontxiangxia1copy19" unicode="&#58923;" d="M273.876092 886.5185 775.427114 393.481461 273.876092-99.555573 219.474055-46.07522 666.623038 393.481461 219.474055 833.039953 273.876092 886.5185Z"  horiz-adv-x="1024" />

    
    <glyph glyph-name="arrfill_d-copy" unicode="&#58925;" d="M805.297 780.422v-799.42c0-44.239-35.503-80.023-79.743-80.022-20.57 0-39.17 7.892-53.261 20.569l-527.503 395.339c-34.941 26.487-42.271 76.366-15.781 111.585 4.51 6.201 9.868 11.555 15.782 15.782l533.131 399.857c34.945 26.199 85.090 19.156 111.303-16.064 10.991-14.375 16.064-30.997 16.064-47.619v0z"  horiz-adv-x="1024" />

    
    <glyph glyph-name="icon-fav" unicode="&#58909;" d="M807.779-119.077c37.869-16.688 79.663 13.678 75.495 54.85l-30.162 298.441 199.779 223.586c27.573 30.859 11.609 79.991-28.836 88.749l-293.119 63.476-150.944 259.155c-20.828 35.76-72.489 35.76-93.317 0l-150.8-259.126-293.264-63.505c-40.446-8.758-56.41-57.89-28.836-88.749l199.844-223.487-30.227-298.54c-4.169-41.172 37.626-71.538 75.495-54.85l274.693 121.048 274.199-121.048z"  horiz-adv-x="1067" />

    
    <glyph glyph-name="insurance" unicode="&#58885;" d="M817.90976 656.78848l-150.03648 0 0 50.4832c0 27.8784-22.39488 50.4832-50.01216 50.4832l-200.0384 0c-27.61728 0-50.01216-22.60992-50.01216-50.4832l0-50.4832L217.7792 656.78848C162.53952 656.78848 117.76 611.57888 117.76 555.81696l0-454.38976c0-55.76192 44.77952-100.97664 100.0192-100.97664l600.13056 0c55.23968 0 100.0192 45.21472 100.0192 100.97664L917.92896 555.81696C917.92896 611.57888 873.14944 656.78848 817.90976 656.78848zM417.82272 682.03008c0 13.94176 11.1872 25.2416 25.00608 25.2416l150.03136 0c13.80864 0 25.00608-11.29984 25.00608-25.2416l0-25.2416c-14.84288 0-11.19744 0-25.00608 0L442.8288 656.78848c-13.81888 0-10.15808 0-25.00608 0L417.82272 682.03008zM867.92192 101.43232c0-27.88352-22.4-50.48832-50.01216-50.48832L217.7792 50.944c-27.61216 0-50.01216 22.6048-50.01216 50.48832l0 277.67808 253.58848 0c-2.08896-8.11008-3.5328-16.47104-3.5328-25.2416 0-55.76192 44.7744-100.97664 100.0192-100.97664 55.23968 0 100.0192 45.21472 100.0192 100.97664 0 8.77056-1.45408 17.13152-3.52768 25.2416l253.58336 0L867.9168 101.43232zM467.83488 353.8688c0 9.23648 2.64192 17.792 6.93248 25.2416l86.14912 0c4.29568-7.4496 6.93248-16.00512 6.93248-25.2416 0-27.8784-22.39488-50.48832-50.01216-50.48832S467.83488 325.9904 467.83488 353.8688zM867.92192 429.5936 167.77216 429.5936 167.77216 555.81696c0 27.8784 22.4 50.48832 50.01216 50.48832l600.13056 0c27.61216 0 50.01216-22.60992 50.01216-50.48832L867.92704 429.5936z"  horiz-adv-x="1024" />

    
    <glyph glyph-name="icon2" unicode="&#58926;" d="M684.087868 141.813099 327.601758 141.813099c-69.051679 0-125.228119 56.17644-125.228119 125.229143L202.373639 442.939367c0 69.045539 56.17644 125.217886 125.228119 125.217886l324.994885 0c11.193947 0 20.270672-9.074679 20.270672-20.268626 0-11.192923-9.075703-20.267603-20.270672-20.267603L327.601758 527.621025c-46.701648 0-84.692914-37.986149-84.692914-84.681658L242.908844 267.042241c0-46.701648 37.991266-84.692914 84.692914-84.692914l356.48611 0c46.700625 0 84.691891 37.991266 84.691891 84.692914 0-0.010233-0.116657 212.230636-0.116657 292.108894 0 39.624463 11.136641 70.139453 33.110095 90.704838 29.691229 27.783787 67.900459 25.602098 69.52547 25.483394 11.171434-0.741897 19.624966-10.396791 18.883069-21.565155-0.73985-11.172457-10.32516-19.609617-21.560038-18.882046-0.066515 0-22.853497 0.890276-39.47813-14.94334-13.238512-12.613272-19.946284-33.06814-19.946284-60.798714 0-79.867002 0.11768-292.098661 0.11768-292.098661C809.314964 197.989539 753.139547 141.813099 684.087868 141.813099zM653.032572 399.384385 359.288434 399.384385c-11.192923 0-20.267603 9.074679-20.267603 20.266579 0 11.193947 9.074679 20.268626 20.267603 20.268626l293.744137 0c11.192923 0 20.267603-9.074679 20.267603-20.268626C673.300174 408.459065 664.226518 399.384385 653.032572 399.384385zM653.032572 271.068951 359.288434 271.068951c-11.192923 0-20.267603 9.075703-20.267603 20.267603 0 11.193947 9.074679 20.268626 20.267603 20.268626l293.744137 0c11.192923 0 20.267603-9.073656 20.267603-20.268626C673.300174 280.145677 664.226518 271.068951 653.032572 271.068951zM788.295232 73.706955m-40.535205 0a39.612 39.612 0 1 0 81.07041 0 39.612 39.612 0 1 0-81.07041 0ZM232.437351 73.706955m-40.535205 0a39.612 39.612 0 1 0 81.07041 0 39.612 39.612 0 1 0-81.07041 0Z"  horiz-adv-x="1024" />

    
    <glyph glyph-name="taojinbiicon" unicode="&#58901;" d="M751.471558 543.374824c-44.50154 39.865963-108.161419 58.938344-175.063131 65.644069l-0.080841 0c0 0-3.89675-0.941442-11.511171 11.195993-10.350742 18.549471-36.513612 55.178717-82.802868 61.0791 2.743484-0.426719-18.801205 2.668783-26.000164 0.345877-16.422018-4.361331-9.765411-45.198411 3.25309-70.220295 0-3.520173-0.518816-9.106402-6.080485-15.811104l0.239454 0c-116.16572-33.510208-200.608947-129.556705-197.526749-241.513566 3.64297-131.221624 136.370901-228.04788 276.032754-228.04788 14.987343 0 139.637294-8.05649 217.951941 65.392336 47.680952 44.727691 23.653723 111.632473 21.877263 177.355337C769.972934 433.41341 799.268144 500.480898 751.471558 543.374824zM562.61426 308.421674c-17.687848-0.234337-32.133861 11.027148-32.481785 43.343157l-0.400113 37.399795c-0.199545 22.087041 13.927197 44.317345 31.629371 44.454468 17.727757 0.169869 32.17684-7.394411 32.363082-29.489638l0.599657-63.059198C594.605881 318.986287 580.316433 308.588473 562.61426 308.421674zM730.405777 324.927603c-12.777001-0.127913-23.331381 13.474896-23.557532 37.491892l-0.384763 37.390585c-0.2415 25.452695 9.952676 43.069935 22.704095 43.163055 12.836353 0.128937 20.771069-3.849678 21.091364-37.521568l0.425695-42.61968C751.004931 330.594673 743.201198 325.058586 730.405777 324.927603zM525.944082 847.863676c-246.952438 0-447.150016-200.196555-447.150016-447.150016 0-246.955508 200.197578-447.15104 447.150016-447.15104 246.955508 0 447.15104 200.195531 447.15104 447.15104C973.094098 647.667122 772.89959 847.863676 525.944082 847.863676zM525.944082 0.631636c-220.958414 0-400.081001 179.122587-400.081001 400.082024s179.122587 400.082024 400.081001 400.082024c220.959438 0 400.084071-179.122587 400.084071-400.082024S746.902496 0.631636 525.944082 0.631636z"  horiz-adv-x="1024" />

    
    <glyph glyph-name="weixin2" unicode="&#58927;" d="M511.9975 804.175c235.8 0 428.7375-192.925 428.7375-428.725 0-235.8125-192.9375-428.75-428.7375-428.75s-428.7375 192.9375-428.7375 428.75C83.2625 611.25 274.25 804.175 511.9975 804.175M511.9975 843.15c-259.1875 0-467.7125-208.525-467.7125-467.7 0-259.2125 208.525-467.7125 467.7125-467.7125 259.2 0 467.7125 208.5 467.7125 467.7125C979.71 634.625 769.235 843.15 511.9975 843.15L511.9975 843.15zM436.8125 649.875c-123.825 0-224.175-83.95-224.175-187.5 0-60.7 34.475-114.675 87.9875-148.925 0.6875-0.4375 2.0625-1.2875 2.0625-1.2875l-21.675-67.8625 81.0375 41.2875c0 0 2.5375-0.75 3.8125-1.1125 22.3-6.2 46.1375-9.5625 70.95-9.5625 5.0375 0 10.0625 0.2 15.05 0.475-4.6 14.25-7.125 29.2375-7.125 44.7375 0 94.5 91.45 171.15 204.1875 171.15 3.2 0 6.325-0.0625 9.45-0.2125C641.8475 581 548.9225 649.875 436.8125 649.875zM358.7875 496.475c-17.4 0-31.475 13.6625-31.475 30.475 0 16.85 14.075 30.475 31.475 30.475 17.4 0 31.5-13.625 31.5-30.475C390.2875 510.1375 376.1875 496.475 358.7875 496.475zM514.7975 496.475c-17.4 0-31.4625 13.6625-31.4625 30.475 0 16.85 14.0625 30.475 31.4625 30.475 17.3875 0 31.475-13.625 31.475-30.475C546.2725 510.1375 532.185 496.475 514.7975 496.475zM839.985 319.015c0 87.45-84.7875 158.3625-189.35 158.3625-104.6 0-189.4125-70.9125-189.4125-158.3625 0-87.475 84.8125-158.4 189.4125-158.4 20.95 0 41.0625 2.8375 59.8875 8.1125 1.1 0.2875 3.225 0.925 3.225 0.925l68.45-34.9-18.2875 57.3375c0 0 1.175 0.725 1.7375 1.0875C810.81 222.115 839.985 267.7025 839.985 319.015zM584.7225 347.79c-14.7 0-26.5875 11.5375-26.5875 25.7625 0 14.2 11.8875 25.725 26.5875 25.725s26.6125-11.525 26.6125-25.725C611.335 359.3275 599.4225 347.79 584.7225 347.79zM716.485 347.79c-14.675 0-26.5625 11.5375-26.5625 25.7625 0 14.2 11.8875 25.725 26.5625 25.725 14.725 0 26.6125-11.525 26.6125-25.725C743.0975 359.3275 731.21 347.79 716.485 347.79z"  horiz-adv-x="1024" />

    
    <glyph glyph-name="dianzan" unicode="&#59108;" d="M1024 396.576768c0 48.382976-38.30784 85.704704-89.114624 85.704704L800.884736 482.281472l0 0L614.423552 482.281472c20.460544 47.49824 57.230336 147.18976 57.230336 250.092544C671.653888 849.842176 612.73088 874.496 563.30752 874.496c-30.635008 0-74.923008-23.230464-74.923008-65.235968 0-17.718272-2.788352-175.42144-99.07712-256.221184C286.731264 466.968576 257.57696 444.460032 201.38496 444.460032c-65.519616 0-181.961728-1.442816-181.961728-1.442816L0 442.76736l0-458.430464 214.46144 0c13.923328 0 55.711744-18.623488 92.576768-35.013632C367.9232-77.802496 436.903936-108.544 483.346432-108.544l309.731328 0 0 0.114688c50.422784 0 91.460608 39.668736 91.460608 88.41728 0 19.854336-7.07584 38.014976-18.538496 52.789248 36.96128 10.582016 64.231424 44.32384 64.231424 84.637696 0 20.257792-7.115776 38.725632-18.61632 53.673984 36.366336 11.620352 62.961664 45.333504 62.961664 85.531648 0 20.200448-6.923264 38.706176-18.192384 53.74976C995.115008 320.06656 1024 354.88768 1024 396.576768zM934.885376 346.847232l-50.499584 0-17.923072 0 0-39.400448 17.923072 0c28.000256 0 50.807808-22.796288 50.807808-50.82624 0-28.010496-22.807552-50.807808-50.807808-50.807808l-42.50112 0-14.80704 0 0-39.399424 14.80704 0c27.000832 0 48.961536-21.989376 48.961536-48.999424 0-27.03872-21.960704-49.00864-48.961536-49.00864l-48.806912 0-5.385216 0 0-39.399424 5.385216 0c28.69248 0 52.076544-22.008832 52.076544-49.01888 0-27.047936-23.385088-49.017856-52.076544-49.017856L742.76864-69.030912l0-0.114688L483.346432-69.1456c-38.07744 0-105.84576 30.20288-160.287744 54.443008-53.51936 23.817216-87.365632 38.437888-108.596224 38.437888L39.384064 23.735296 39.384064 403.849216c35.846144 0.403456 113.115136 1.211392 161.999872 1.211392 72.846336 0 111.077376 32.089088 213.230592 117.794816 107.692032 90.360832 113.153024 254.431232 113.153024 286.404608 0 16.072704 24.674304 25.836544 35.538944 25.836544 20.615168 0 68.962304 0 68.962304-102.721536 0-129.8176-65.501184-259.520512-66.154496-260.82816l-14.654464-28.664832L680.192 442.882048l81.307648 0 31.230976 0c0.692224-0.499712 1.115136 0 1.115136 0l141.038592 0c28.807168 0 49.729536-19.969024 49.729536-46.30528C984.614912 369.16224 962.308096 346.847232 934.885376 346.847232z"  horiz-adv-x="1024" />

    
    <glyph glyph-name="mianfei" unicode="&#58928;" d="M924.783616 558.390272c-22.565888 53.351424-54.863872 101.260288-95.997952 142.395392-41.136128 41.135104-89.043968 73.434112-142.396416 96C631.1424 820.153344 572.468224 832.001024 512 832.001024S392.859648 820.153344 337.611776 796.78464c-53.352448-22.565888-101.260288-54.864896-142.394368-96-41.136128-41.135104-73.43616-89.043968-96-142.395392C75.849728 503.141376 64 444.4672 64 383.998976c0-22.349824 1.664-44.807168 4.941824-66.747392 2.131968-14.268416 15.43168-24.107008 29.698048-21.974016 14.268416 2.132992 24.105984 15.428608 21.974016 29.696-2.899968 19.392512-4.368384 39.250944-4.368384 59.025408 0 218.220544 177.533952 395.757568 395.754496 395.757568s395.75552-177.536 395.75552-395.757568S730.21952-11.756544 512-11.756544c-108.136448 0-209.124352 42.796032-284.357632 120.506368-10.036224 10.364928-26.573824 10.632192-36.937728 0.596992s-10.632192-26.5728-0.598016-36.937728c41.32352-42.683392 89.807872-76.239872 144.104448-99.738624 56.223744-24.333312 116.041728-36.671488 177.789952-36.671488 60.468224 0 119.1424 11.848704 174.390272 35.216384 53.352448 22.565888 101.260288 54.863872 142.396416 95.998976 41.13408 41.135104 73.432064 89.042944 95.997952 142.394368 23.36768 55.248896 35.216384 113.922048 35.216384 174.391296S948.15232 503.141376 924.783616 558.390272zM135.988224 232.37632c-21.443584 0-38.89152-17.445888-38.89152-38.888448 0-21.443584 17.447936-38.889472 38.89152-38.889472 21.441536 0 38.8864 17.445888 38.8864 38.889472C174.8736 214.931456 157.42976 232.37632 135.988224 232.37632zM473.868288 614.888448c-10.938368 9.686016-27.652096 8.67328-37.338112-2.262016L292.7104 450.249728c-9.683968-10.934272-8.670208-27.651072 2.264064-37.336064 5.033984-4.458496 11.291648-6.65088 17.52576-6.65088 7.308288 0 14.583808 3.012608 19.810304 8.91392l12.516352 14.130176L344.82688 346.112c0-14.608384 11.841536-26.44992 26.44992-26.44992l81.600512 0L319.003648 192.05632c-10.573824-10.078208-10.974208-26.820608-0.896-37.394432 5.197824-5.453824 12.168192-8.201216 19.149824-8.201216 6.555648 0 13.125632 2.423808 18.243584 7.304192L529.54624 319.66208l137.100288 0c14.608384 0 26.447872 11.841536 26.447872 26.44992l0 102.065152c0 14.608384-11.840512 26.44992-26.447872 26.44992l-80.809984 0 42.550272 52.232192c6.448128 7.914496 7.766016 18.835456 3.38432 28.056576-4.381696 9.22112-13.679616 15.097856-23.88992 15.097856L469.451776 570.013696l6.677504 7.538688C485.81632 588.486656 484.801536 605.203456 473.868288 614.888448zM492.510208 372.560896l-94.784512 0 0 49.166336 94.784512 0L492.510208 372.560896zM640.195584 372.560896l-94.785536 0 0 49.166336 94.785536 0L640.195584 372.560896zM552.2176 517.112832l-34.612224-42.486784L384.96768 474.626048l37.629952 42.486784L552.2176 517.112832zM542.92992 296.78592c-14.608384 0-26.44992-11.84256-26.44992-26.44992l0-83.508224c0-14.60736 11.841536-26.44992 26.44992-26.44992l168.561664 0c14.608384 0 26.44992 11.841536 26.44992 26.44992 0 14.608384-11.841536 26.44992-26.44992 26.44992L569.37984 213.277696 569.37984 270.336C569.37984 284.94336 557.538304 296.78592 542.92992 296.78592z"  horiz-adv-x="1025" />

    
    <glyph glyph-name="fuzhuang" unicode="&#59484;" d="M936.448 606.912l-163.904 162.176c-12.224 12.096-29.056 18.304-46.464 17.024-1.6 0.128-3.2 0.192-4.736 0.192L634.112 786.304 627.968 782.912c-32.384-17.792-73.6-27.648-116.224-27.648-42.56 0-83.84 9.792-116.16 27.648L389.44 786.304 302.208 786.304c-22.272 0-42.304-12.032-52.608-31.104L87.552 594.88C76.352 583.808 70.272 569.152 70.272 553.408S76.352 523.136 87.552 512l118.4-117.12c9.856-9.728 22.656-15.68 36.48-16.896l0-283.136c0-32.64 26.816-59.136 59.776-59.136l419.2 0c32.96 0 59.84 26.496 59.84 59.136L781.248 390.016c13.952 1.216 26.88 7.04 36.864 17.024l118.4 117.12C959.488 546.944 959.488 584.128 936.448 606.912zM898.176 561.856l-118.336-117.12c-1.28-1.28-2.624-1.472-3.648-1.472-0.96 0-2.304 0.256-3.52 1.408l-45.568 42.56 0-392.384c0-3.136-2.624-5.696-5.824-5.696l-419.2 0c-3.136 0-5.824 2.56-5.824 5.696L296.256 473.28 251.264 432.512c-1.28-1.088-2.624-1.344-3.52-1.344-0.96 0-2.368 0.256-3.712 1.472L125.824 549.888C124.48 551.04 124.16 552.512 124.16 553.408s0.32 2.368 1.6 3.712l163.52 161.728 5.248 4.608 2.304 5.76c0.64 1.6 2.432 3.648 5.312 3.648l73.408 0c39.552-20.352 86.528-30.976 136.128-30.976 49.664 0 96.64 10.624 136.128 30.976l73.472 0c0.256-0.064 0.576-0.128 0.896-0.128l3.84-0.576 3.904 0.576c1.216 0.128 2.88 0.128 4.416-1.344l163.84-162.24C900.224 567.104 900.224 563.904 898.176 561.856z"  horiz-adv-x="1024" />

    
    <glyph glyph-name="icon3" unicode="&#58952;" d="M399.399 383.754l292.155 292.16c12.278 12.27 12.278 32.186 0 44.457-12.27 12.278-32.186 12.278-44.457 0l-314.387-314.389c-12.281-12.27-12.281-32.186 0-44.457l314.388-314.388c6.137-6.14 14.183-9.211 22.228-9.211s16.092 3.071 22.228 9.211c12.281 12.27 12.281 32.186 0 44.457l-292.157 292.161z"  horiz-adv-x="1024" />

    
    <glyph glyph-name="icon1" unicode="&#58953;" d="M624.865 383.753l-292.155 292.159c-12.28 12.27-12.28 32.186 0 44.457 12.27 12.28 32.186 12.28 44.457 0l314.388-314.388c12.28-12.27 12.28-32.186 0-44.457l-314.388-314.387c-6.136-6.14-14.183-9.211-22.228-9.211s-16.092 3.071-22.228 9.211c-12.28 12.27-12.28 32.186 0 44.457l292.155 292.16z"  horiz-adv-x="1024" />

    
    <glyph glyph-name="xialajiantou" unicode="&#58988;" d="M871.563704 571.867762c-11.996219 11.840676-31.29475 11.780301-43.167149-0.187265L515.592316 256.02635 198.4247 570.336896c-11.995195 11.876492-31.290657 11.788487-43.198871-0.180102-11.879562-11.999288-11.787464-31.326473 0.180102-43.206034l337.102644-334.038866c0.520863-0.515746 1.191128-0.63445 1.710968-1.12666 0.12382-0.12075 0.151449-0.272199 0.272199-0.396019 5.955642-5.892197 13.747095-8.854669 21.497617-8.854669 7.846712 0 15.725146 3.022847 21.677719 9.03784l334.049099 337.088318C883.623367 540.661016 883.53127 559.9882 871.563704 571.867762L871.563704 571.867762 871.563704 571.867762zM871.563704 571.867762"  horiz-adv-x="1024" />

    
    <glyph glyph-name="bianji" unicode="&#58929;" d="M319.2 330.9c-0.7-0.8-1.3-1.7-1.6-2.8L266 140.3c-3-10.9 0.1-22.7 8.2-31 6.1-5.9 14.1-9.2 22.7-9.2 2.8 0 5.6 0.3 8.4 1.1L492.9 152c0.3 0 0.4-0.3 0.7-0.3 2.2 0 4.3 0.8 5.9 2.4l501.5 498.5c14.9 14.8 23.1 35 23.1 57 0 24.9-10.6 49.8-29.2 68.2l-47.4 47.2c-18.6 18.5-43.6 29.1-68.7 29.1-22.1 0-42.4-8.1-57.4-22.9L319.9 332.6C319.4 332.1 319.6 331.4 319.2 330.9M951.9 701.5 902 652l-80.8 81.6 49.1 48.8c7.8 7.8 22.8 6.6 31.7-2.3l47.4-47.2c4.9-4.9 7.8-11.4 7.8-17.9C957.3 709.8 955.4 705 951.9 701.5M408.4 323.1l361.9 359.8 80.8-81.6L489.8 242.1 408.4 323.1 408.4 323.1 408.4 323.1zM342.4 177.2l26.2 95.4 69.8-69.4L342.4 177.2 342.4 177.2 342.4 177.2zM983.6 504c-19 0-34.6-15.4-34.6-34.5l0-464.8c0-24.4-19.9-44.2-44.5-44.2L113.7-39.5c-24.5 0-44.5 19.8-44.5 44.2L69.2 763.3c0 24.4 20 44.2 44.5 44.2L623 807.5c19.1 0 34.6 15.4 34.6 34.4 0 18.9-15.5 34.4-34.6 34.4L108.4 876.3C48.6 876.3 0 828 0 768.5l0-769.1c0-59.5 48.6-107.8 108.4-107.8l801.4 0c59.8 0 108.4 48.3 108.4 107.8L1018.2 469.7C1018.1 488.6 1002.6 504 983.6 504"  horiz-adv-x="1025" />

    
    <glyph glyph-name="suo" unicode="&#58924;" d="M823.371 449.501l-68.717 0 0 159.816c0 133.843-108.783 242.683-242.621 242.683-133.843 0-242.746-108.84-242.746-242.683l0-159.816-68.659 0c-33.106 0-59.937-26.828-59.937-59.937l0-437.563c0-33.168 26.832-60 59.937-60l622.805 0c33.111 0 59.88 26.832 59.88 60l0 437.563c-0.005 33.111-26.827 59.937-59.943 59.937zM545.691 159.379l0-95.549c0-4.268-3.532-7.868-7.867-7.868l-51.523 0c-4.388 0-7.925 3.6-7.925 7.868l0 95.549c-24.206 12.379-40.972 37.195-40.972 66.283 0 41.155 33.413 74.631 74.573 74.631 41.217 0 74.635-33.475 74.635-74.631 0.057-29.088-16.709-53.904-40.92-66.283zM661.544 449.501l-299.026 0 0 155.856c0 82.44 67.132 149.573 149.572 149.573s149.453-67.133 149.453-149.573l0-155.856z"  horiz-adv-x="1024" />

    
    <glyph glyph-name="shouji2" unicode="&#58979;" d="M848.8 4 848.8 763.2c0 18.4-3.6 35.6-11.2 51.6-7.2 16-17.2 30-30 42.4-12.8 12-28 21.6-45.2 28.4-17.2 6.8-35.6 10.4-55.6 10.4L316.8 896c-19.6 0-38.4-3.6-55.6-10.4-17.2-6.8-32.4-16.4-45.2-28.4-12.8-12-22.8-26-30-42.4-7.2-16-11.2-33.2-11.2-51.6L174.8 4c0-18.4 3.6-35.2 11.2-51.2 7.2-15.6 17.2-29.6 30-41.6 12.8-12 28-21.6 45.2-28.4 17.2-6.8 35.6-10.4 55.6-10.4l390 0c19.6 0 38.4 3.6 55.6 10.4 17.2 6.8 32.4 16.4 45.2 28.4 12.8 12 22.8 26 30 41.6C845.2-31.6 848.8-14.4 848.8 4L848.8 4zM430.8 817.6c4 3.2 8 4.8 11.6 4.8l139.6 0c4.4 0 8.4-1.6 12-4.8 3.6-3.2 5.6-8 5.6-13.6s-2-10.4-5.6-13.6c-3.6-3.2-7.6-4.8-12-4.8l-139.6 0c-4.4 0-8.4 1.6-12 4.8-3.6 3.2-5.6 8-5.6 13.6C424.4 809.6 426.8 814 430.8 817.6zM552-70.4c-11.2-11.2-24.4-17.2-40.8-17.2-15.6 0-28.8 5.6-40 17.2-11.2 11.2-17.2 24.8-17.2 40 0 16 5.6 29.6 17.2 40.8 11.2 11.2 24.8 16.4 40 16.4 16 0 29.6-5.6 40.8-16.4 11.2-11.2 16.4-24.4 16.4-40.8C568.4-45.6 563.2-58.8 552-70.4zM759.6 57.6 263.2 57.6 263.2 710.4l496.8 0L759.6 57.6z"  horiz-adv-x="1024" />

    
    <glyph glyph-name="lianjie" unicode="&#59072;" d="M331.502964 564.503436c-11.110365-11.110365-11.110365-29.107109 0-40.191874l321.816594-321.790994c11.110365-11.161565 29.107109-11.110365 40.191874-0.0256 11.110365 11.110365 11.110365 29.081509 0 40.191874L371.720439 564.503436C360.610073 575.588201 342.61333 575.588201 331.502964 564.503436zM96.2141 836.041787 59.990213 799.7923c-79.97415-79.97415-79.99975-209.637745 0-289.611895l126.719604-126.719604c62.668604-62.719804 155.749913-75.878163 231.602476-40.243074 0.281599 0.128 0.537598 0.230399 0.844797 0.332799 0.537598 0.255999 1.177596 0.486398 1.715195 0.742398-0.0512 0.128 0.0512-0.128 0 0 2.713592 1.356796 5.171184 3.07199 7.449577 5.350383 11.238365 11.238365 11.238365 29.491108 0 40.755073-9.036772 9.011172-22.24633 10.598367-33.049497 5.171184-0.0512 0.1536 0.0768-0.1536 0 0-56.575823-25.72792-125.849207-15.180753-172.364261 31.359902L103.433277 546.378692c-59.980613 60.006212-59.980613 157.234709 0 217.215321L132.386787 792.573123c59.980613 59.980613 157.234709 59.955013 217.215321 0l119.474827-119.474827c47.283052-47.257452 57.292621-117.810832 30.131106-174.847454 0 0 0.0256 0.0256 0 0-0.0768-0.204799 0.1024 0.204799 0 0 0.0512-0.0256-0.0256 0.0256 0 0-3.839988-10.239968-2.227193-22.707129 6.015981-30.950303 11.238365-11.238365 29.491108-11.263965 40.755073 0 2.303993 2.303993 4.377586 4.915185 5.759982 7.679976 0.1536-0.0256-0.179199 0.0256 0 0 37.196684 76.313361 24.217524 170.905066-39.167878 234.316068l-126.719604 126.719604C305.851844 915.990337 176.16265 915.990337 96.2141 836.041787zM963.411389-31.155503l-36.249487-36.223887c-79.97415-79.97415-209.637745-79.97415-289.611895 0.0256l-126.719604 126.694004c-62.668604 62.668604-75.878163 155.775513-40.217474 231.602476 0.128 0.281599 0.230399 0.537598 0.332799 0.844797 0.255999 0.537598 0.511998 1.203196 0.742398 1.715195 0.128-0.0512-0.128 0.0512 0 0 1.356796 2.713592 3.07199 5.171184 5.350383 7.449577 11.238365 11.238365 29.491108 11.238365 40.780673 0 8.985572-9.011172 10.572767-22.220731 5.119984-33.049497 0.179199-0.0768-0.128 0.0768 0 0-25.72792-56.601423-15.155153-125.823607 31.385502-172.364261l119.474827-119.449227c60.006212-60.006212 157.234709-60.006212 217.215321 0l28.95351 28.95351c60.006212 60.006212 59.980613 157.234709 0 217.189721l-119.449227 119.474827c-47.283052 47.257452-117.810832 57.292621-174.847454 30.131106-0.0256 0 0.0256 0 0 0-0.204799-0.128 0.230399 0.0768 0 0-0.0256 0 0.0256-0.0256 0 0-10.239968-3.865588-22.707129-2.252793-30.950303 6.015981-11.238365 11.263965-11.238365 29.491108-0.0256 40.755073 2.303993 2.278393 4.889585 4.351986 7.705576 5.734382-0.0256 0.128 0.0256-0.179199 0 0 76.313361 37.222284 170.905066 24.217524 234.290468-39.167878l126.719604-126.719604C1043.359939 178.507842 1043.359939 48.818647 963.411389-31.155503z"  horiz-adv-x="1025" />

    
    <glyph glyph-name="peichang" unicode="&#59000;" d="M1509.750392 593.913834M2506.191544 593.913834M506.602042-126.120688c-67.864815 0-133.713623 13.296939-195.716728 39.522246-59.874704 25.325141-113.642657 61.574792-159.810335 107.741457-46.167678 46.167678-82.417329 99.934619-107.741457 159.809322-26.225306 62.003105-39.522246 127.851913-39.522246 195.716728S17.108215 510.383701 43.333522 572.386806c25.325141 59.874704 61.574792 113.642657 107.741457 159.810335 46.166665 46.167678 99.934619 82.417329 159.810335 107.741457 62.003105 26.225306 127.850901 39.522246 195.716728 39.522246S640.315666 866.163904 702.318771 839.938598c59.874704-25.325141 113.641645-61.574792 159.809322-107.741457 46.167678-46.166665 82.417329-99.934619 107.741457-159.810335 26.225306-62.003105 39.522246-127.850901 39.522246-195.716728s-13.296939-133.713623-39.522246-195.716728c-25.325141-59.874704-61.574792-113.641645-107.741457-159.809322s-99.934619-82.417329-159.809322-107.741457C640.315666-112.823749 574.466857-126.120688 506.602042-126.120688zM506.602042 828.832839c-249.322672 0-452.162761-202.839076-452.162761-452.162761s202.839076-452.162761 452.162761-452.162761 452.162761 202.839076 452.162761 452.162761S755.924715 828.832839 506.602042 828.832839zM358.478676 486.125799l29.503976 0 0-131.875827c0-33.677749-3.576362-64.372496-10.729087-92.08829l12.517268 12.069716c28.609886-31.592888 53.791243-60.350607 75.549134-86.278221l-27.716808-23.245342c-18.774889 25.630934-40.533793 52.750331-65.267599 81.360216-13.411358-41.426871-35.912469-75.101582-67.502319-101.029196-7.152725 9.538316-14.901847 18.478209-23.246355 26.821704 51.25883 37.550791 76.890776 98.347937 76.890776 182.390425L358.477663 486.125799zM302.151983 554.075669l142.157362 0 0-274.033189-29.504989 0L414.804356 525.018232l-83.148397 0 0-247.657011-29.503976 0L302.151983 554.075669zM462.191156 398.9545l144.839634 0c21.753841 35.46188 38.29401 64.072778 49.620508 85.830669l33.081351-19.669992c-16.690028-25.033523-32.040439-47.088095-46.045158-66.160677l83.595949 0 0-31.292157L462.191156 367.662343 462.191156 398.9545zM468.896329 523.677602l113.547477 0c-8.940906 18.475172-16.8409 33.82457-23.692894 46.045158l28.610898 14.751988c9.237586-14.901847 18.475172-31.145336 27.715795-48.726417l-25.034536-12.069716 125.618206 0 0-31.292157L468.896329 492.386458 468.896329 523.677602zM485.436498 323.405366l211.00031 0 0-181.048783-32.186248 0 0 28.609886-146.628828 0 0-29.057437-32.186248 0L485.435486 323.405366zM492.142684 466.456819l25.480062 17.43426c18.178491-22.352264 33.22716-42.618654 45.151067-60.797146l-28.609886-21.010622C518.663658 428.605297 504.658939 450.063471 492.142684 466.456819zM664.250561 292.559748l-146.628828 0 0-90.747661 146.628828 0L664.250561 292.559748z"  horiz-adv-x="1025" />

    
    <glyph glyph-name="jiaju" unicode="&#58889;" d="M928.150517 391.826905c0-24.082785-19.507056-39.375353-43.58984-39.375353L447.939793 352.451552c-23.962371 0-43.469426 15.412982-43.469426 39.375353L404.470367 718.389464c0 24.082785 19.507056 43.469426 43.469426 43.469426l436.620884 0c24.082785 0 43.58984-19.507056 43.58984-43.469426L928.150517 391.826905 928.150517 391.826905zM928.150517 391.826905M1077.584196 502.005644c9.873942 0 17.941675-8.067733 17.941675-17.941675l0-111.984948c0-9.873942-8.067733-19.747883-17.941675-19.747883l-92.237065 0c-9.873942 0-17.941675 9.873942-17.941675 19.747883l0 111.984948c0 9.873942 8.067733 17.941675 17.941675 17.941675L1077.584196 502.005644 1077.584196 502.005644zM1077.584196 502.005644M344.985889 502.005644c9.873942 0 17.941675-8.067733 17.941675-17.941675l0-111.984948c0-9.873942-8.067733-19.747883-17.941675-19.747883l-92.237065 0c-9.873942 0-17.941675 9.873942-17.941675 19.747883l0 111.984948c0 9.873942 8.067733 17.941675 17.941675 17.941675L344.985889 502.005644 344.985889 502.005644zM344.985889 502.005644M1106.603951 110.780809c0-21.19285-17.339605-38.532455-38.532455-38.532455L285.983067 72.248354c-21.19285 0-38.532455 17.339605-38.532455 38.532455l0 79.352775c0 21.19285 17.339605 38.532455 38.532455 38.532455L1068.071496 228.66604c21.19285 0 38.532455-17.339605 38.532455-38.532455L1106.603951 110.780809 1106.603951 110.780809zM1106.603951 110.780809M329.211665 81.158984l88.865475 0 0-77.064911-88.865475 0L329.211665 81.158984 329.211665 81.158984zM329.211665 81.158984M945.249294 81.158984l87.902164 0 0-77.064911-87.902164 0L945.249294 81.158984 945.249294 81.158984zM945.249294 81.158984M1119.488241 254.314205c0-21.19285-17.339605-38.532455-38.532455-38.532455L274.42333 215.78175c-21.19285 0-38.532455 17.339605-38.532455 38.532455l0 19.266228c0 21.19285 17.339605 38.532455 38.532455 38.532455l806.532455 0c21.19285 0 38.532455-17.339605 38.532455-38.532455L1119.488241 254.314205 1119.488241 254.314205zM1119.488241 254.314205"  horiz-adv-x="1356" />

    
    <glyph glyph-name="dianhua1" unicode="&#58943;" d="M654.293328-127.923206c-151.457441 0-332.909432 140.949429-451.537335 350.738495C49.045922 494.686099 52.373672 778.351224 210.333025 868.603655c34.13504 19.486539 73.402495 28.375472 116.087293 26.481214C329.588081 895.584031 332.813439 895.897608 336.109192 895.974402c0.236782 0 1.766268 0.025598 1.983851 0.025598C407.636627 896 471.19666 808.608154 485.953953 692.706447c9.631278-75.591131-4.575657-143.931605-37.974752-182.79589-17.745869-20.644852-40.048196-31.876009-65.019124-32.471165-0.019199 0-2.770992-0.735945-3.692523-1.86866-1.286304-1.580681-2.783791-7.193061-0.787141-18.449816 14.418119-35.619729 31.524036-70.964278 50.850586-105.156913 21.035222-37.187611 44.611054-72.813739 70.119541-105.892858 0.281579-0.319976 0.563158-0.620753 0.857536-0.915131 4.370872-4.953229 7.289053-4.953229 8.690548-4.953229 4.889233 0 10.853586 3.052571 14.424518 5.394795 16.683549 22.839887 44.246282 35.325351 78.298128 35.325351 45.820563 0 100.40207-22.289528 149.780766-61.160213 90.585206-71.341849 127.792016-167.245057 94.674499-227.848511-2.943779-5.401195-3.244557-5.983551-6.169137-11.250356-21.931155-33.635877-47.836412-62.868885-81.043522-81.837062-31.082469-17.765068-66.299028-26.749994-104.689748-26.749994L654.293328-127.923206 654.293328-127.923206zM609.631078 244.714446c-11.896708 0-39.030673-8.12739-46.236532-19.665725-1.612679-2.591806-3.609329-4.921231-5.900357-6.911482-2.643002-2.303827-26.756393-22.40472-57.819664-22.40472-19.59533 0-16.017999 7.769017-30.493713 22.507112-1.59988 1.363098-3.078169 2.905382-4.40287 4.607654-29.751369 38.288328-45.756568 53.845562-70.151539 96.978327-22.359923 39.555433-36.374872 61.940954-52.943229 103.160263-0.678349 1.702272-1.20311 3.46214-1.574282 5.241207-6.252331 30.282529-23.415844 59.144364-8.709747 77.287003 19.268955 23.793415 42.211234 14.680499 44.867035 14.680499 3.084569 0.083194 35.363748 6.009149 46.460515 18.910582 23.665425 27.537135 33.885459 103.672225 26.046047 165.184411C436.92723 797.3386 365.246207 861.858561 328.903332 861.858561c-1.439892-0.051196-2.860585-0.287978-4.249281-0.575957-2.483014-0.473564-5.023623-0.627153-7.557833-0.499163-34.563808 2.060645-66.183836-1.542284-92.985026-16.830738-133.60278-76.320676-126.79369-350.584906 14.853286-601.100517 113.745069-201.156113 274.833787-334.490113 412.237882-334.490113 29.99455 0 57.20531 6.834687 80.864335 20.363273 26.097243 14.917281 53.135215 32.771942 69.300402 60.750644 1.363098 2.361423 13.112617 24.286179 15.59563 28.951429 16.235582 30.448916-14.085344 117.763968-86.035147 174.412519C689.669875 225.317501 644.329275 244.714446 609.631078 244.714446L609.631078 244.714446zM696.856536 417.290303c-1.72787 0-3.628528-0.217584-5.273205 0.499163-16.229183 7.077869-10.092043 25.175712-7.186661 40.963328 2.054246 11.282354-3.673325 28.40107-10.188036 37.808364-6.501912 9.432893-17.931455 19.288153-28.996225 22.26393-13.317401 3.583731-40.841737 12.741444-39.06907 25.098918 2.284629 15.890008 18.00185 17.656276 33.821463 14.776492 26.53881-4.857236 49.59628-19.780916 64.92953-41.974452 15.320451-22.219134 21.086419-49.07152 16.216384-75.59753C718.550909 427.119966 710.615504 417.290303 696.856536 417.290303L696.856536 417.290303zM795.057171 419.389346c-1.740669 0-3.513336 0.166388-5.273205 0.492763-15.787616 2.879784-13.669375 27.889108-10.776792 43.683124 11.877509 64.731145-33.136715 119.024673-95.87121 138.92718-21.46399 6.809089-47.382046 15.314051-44.483064 31.082469 2.892583 15.787616 22.366323 19.089768 38.109142 16.203585 96.26158-17.643477 160.205585-110.308527 142.542909-206.570107C816.738745 429.19341 808.816139 419.389346 795.057171 419.389346L795.057171 419.389346zM906.965578 388.089293c-1.73427 0-3.500537 0.147189-5.273205 0.467165-15.794015 2.905382-14.226133 26.199635-11.33355 41.968052 11.877509 64.807939-2.195035 130.358223-39.60663 184.600555-37.430793 54.216734-93.73377 90.623603-158.522511 102.494713-15.794015 2.905382-40.252981 13.746169-37.353998 29.533785 2.905382 15.794015 16.350774 21.943954 32.106392 19.06417 80.083594-14.680499 149.639977-59.662725 195.876509-126.6657 46.249331-66.996575 63.630428-147.9953 48.949929-228.072495C929.229508 397.46459 920.724546 388.089293 906.965578 388.089293L906.965578 388.089293zM906.965578 388.089293"  horiz-adv-x="1024" />

    
    <glyph glyph-name="wechat-copy" unicode="&#58995;" d="M693.12 548.736c11.776 0 23.36-0.896 35.008-2.176-31.36 146.048-187.456 254.528-365.696 254.528-199.232 0-362.432-135.744-362.432-308.224 0-99.52 54.272-181.248 145.024-244.736l-36.224-108.992 126.72 63.488c45.312-8.896 81.664-18.112 126.912-18.112 11.392 0 22.656 0.512 33.792 1.344-7.040 24.256-11.2 49.6-11.2 76.032 0.064 158.336 136 286.848 308.096 286.848zM498.304 646.976c27.392 0 45.376-17.984 45.376-45.248 0-27.136-17.984-45.312-45.376-45.312-27.072 0-54.336 18.176-54.336 45.312 0 27.328 27.2 45.248 54.336 45.248zM244.672 556.416c-27.2 0-54.592 18.176-54.592 45.312 0 27.264 27.392 45.248 54.592 45.248s45.248-17.92 45.248-45.248c0-27.136-18.048-45.312-45.248-45.312zM1024 266.24c0 144.896-145.024 262.976-307.904 262.976-172.48 0-308.224-118.144-308.224-262.976 0-145.28 135.808-262.976 308.224-262.976 36.096 0 72.512 9.024 108.736 18.112l99.392-54.528-27.264 90.624c72.768 54.656 127.040 127.040 127.040 208.768zM616.128 311.616c-17.984 0-36.224 17.92-36.224 36.224 0 18.048 18.24 36.224 36.224 36.224 27.52 0 45.376-18.176 45.376-36.224 0-18.304-17.856-36.224-45.376-36.224zM815.488 311.616c-17.856 0-36.032 17.92-36.032 36.224 0 18.048 18.112 36.224 36.032 36.224 27.264 0 45.376-18.176 45.376-36.224 0-18.304-18.112-36.224-45.376-36.224z"  horiz-adv-x="1024" />

    
    <glyph glyph-name="xiaoren" unicode="&#58939;" d="M696.498051 359.083042c61.908664 54.848006 101.407415 138.1433 101.407415 231.466773 0 165.464975-124.226641 299.412811-277.309883 299.412811C367.410013 889.962626 243.183372 756.01479 243.183372 590.652143c0-82.988308 31.312481-158.19966 81.965024-212.331368C331.390427 372.283402 507.804537 209.069651 696.498051 359.083042M882.531028 152.072749 731.801339 289.397422c-56.587589-46.354752-216.936145-144.180674-438.579394 3.479165C226.401519 241.507745 48.145498 94.052563 67.894874-5.410613c0 0 3.479165-103.760967 192.070351-108.775057 0 0 561.987409-41.545318 655.413211 55.25732C915.276107-58.92835 1017.39982 6.766463 882.531028 152.072749"  horiz-adv-x="1024" />

    
    <glyph glyph-name="dianhua-copy" unicode="&#58896;" d="M718.052 408.148c1.822-11.959 12.136-20.5 23.853-20.5 1.242 0 2.467 0.081 3.707 0.274 13.2 2.032 22.257 14.377 20.227 27.56-32.072 208.888-219.349 218.704-221.234 218.783-12.973 0.693-24.578-9.848-25.109-23.192-0.532-13.344 9.864-24.593 23.192-25.126 1.499-0.064 149.258-7.865 175.366-177.8zM772.037 638.723c-164.584 164.471-314.775 106.756-321.093 104.21-12.378-4.98-18.388-19.066-13.409-31.444 4.997-12.394 19.050-18.406 31.444-13.409 1.257 0.5 126.662 48.592 268.874-93.542 130.997-130.932 92.542-263.878 90.882-269.374-3.981-12.748 3.095-26.319 15.827-30.315 2.402-0.758 4.851-1.095 7.237-1.095 10.299 0 19.839 6.608 23.079 16.939 2.095 6.704 49.64 165.648-102.84 318.031zM715.423 69.289c-2.321-2.321-9.894-7.719-30.397-7.719-66.45 0-193.788 55.828-316.371 178.38-160.94 160.974-197.542 319.884-170.66 346.75 17.374 17.39 53.507 53.557 87.674 53.557 18.905 0 36.827-10.879 54.765-33.249 51.702-64.419 29.316-86.515-7.784-123.115l-6.898-6.833c-9.3-9.284-14.215-21.533-14.215-35.441-0.017-22.208 10.718-62.452 103.55-155.204 92.848-92.8 133.075-103.534 155.269-103.534h0.017c13.861 0 26.093 4.884 35.392 14.152l6.818 6.882c20.178 20.453 37.617 38.132 59.663 38.132 17.084 0 38.453-10.203 63.499-30.316 21.338-17.164 32.184-34.183 33.136-52.105 1.919-35.022-35.473-72.38-53.458-90.334zM766.031 249.41c-34.328 27.593-65.015 40.985-93.782 40.985-42.275 0-69.801-27.914-94.088-52.541l-7.8-6.624c-7.43 0-38.1 6.431-121.085 89.383-96.845 96.782-89.334 122.213-89.334 122.261l6.672 6.608c38.213 37.697 90.559 89.334 11.539 187.775-27.334 34.055-58.454 51.348-92.478 51.348-54.185 0-98.231-44.063-121.874-67.705-69.913-69.962 32.426-276.869 170.676-415.132 133.027-132.996 271.906-192.546 350.554-192.546 28.365 0 50.107 7.382 64.596 21.871 22.918 22.918 70.624 70.575 67.546 127.162-1.724 31.959-18.938 61.292-51.138 87.159z"  horiz-adv-x="1046" />

    
    <glyph glyph-name="yundong" unicode="&#58938;" d="M808.229 681.951c-79.292 79.335-184.748 122.988-296.916 122.988-112.186 0-217.641-43.651-296.935-122.988-79.315-79.315-123.009-184.748-123.009-296.916 0-112.187 43.695-217.642 123.009-296.957 79.294-79.315 184.748-123.009 296.935-123.009 112.168 0 217.624 43.695 296.916 123.009 79.335 79.314 123.009 184.77 123.009 296.957 0 112.167-43.674 217.6-123.009 296.916zM876.465 385.035c0 2.387-0.297 4.73-0.339 7.116-89.35-1.939-173.457-34.512-240.523-92.715l-86.621 86.621 237.966 237.945c57.713-66.382 89.519-150.149 89.519-238.966zM635.646 221.954l113.551-113.552c-54.049-46.635-119.58-75.863-189.949-85.067 2.557 70.963 27.909 141.244 76.398 198.618zM510.27 424.789l-84.598 84.578c59.758 68.982 90.287 154.476 92.268 240.48 85.366-1.512 165.831-32.148 230.169-87.219l-237.838-237.839zM483.598 748.823c-6.774-0.595-13.507-1.257-20.217-2.152 6.711 0.895 13.421 1.641 20.217 2.152zM463.36 746.672c-2.557-70.942-27.908-141.202-76.396-198.575l-113.552 113.551c-6.903-5.944-13.805-11.909-20.303-18.428 57.501 57.52 130.913 93.099 210.251 103.452zM234.682 622.916l113.572-113.572c-55.817-47.295-125.077-73.988-198.64-76.546 9.161 70.411 38.391 136.006 85.069 190.118zM146.142 385.035c0-2.407 0.298-4.75 0.34-7.136 89.35 1.939 173.457 34.512 240.502 92.715l84.556-84.556-237.859-237.837c6.242-7.308 12.548-14.55 19.429-21.412-68.983 68.962-106.968 160.675-106.968 258.226zM149.614 432.778c-0.873-6.646-1.534-13.357-2.13-20.068 0.511 6.731 1.257 13.421 2.13 20.068zM272.305 109.384l237.966 237.945 86.646-86.644c-59.759-69.004-90.289-154.496-92.248-240.502 2.216-0.041 4.411-0.339 6.646-0.339-88.838-0.001-172.627 31.828-239.009 89.541zM559.248 23.336c-6.732-0.874-13.462-1.619-20.26-2.132 6.775 0.576 13.529 1.257 20.26 2.132zM787.926 147.112l-113.592 113.594c55.818 47.294 125.096 73.987 198.659 76.545-9.161-70.432-38.391-136.027-85.068-190.138zM875.125 357.34c-0.511-6.732-1.258-13.401-2.109-20.047 0.852 6.646 1.513 13.336 2.109 20.047z"  horiz-adv-x="1024" />

    
    <glyph glyph-name="jiantou" unicode="&#58931;" d="M171.134 208.325c0 0 297.604 387.574 297.604 387.574 20.681 26.938 65.523 26.938 86.203 0 0 0 297.604-387.574 297.604-387.574 19.175-24.968-4.808-56.196-43.161-56.196 0 0-595.151 0-595.151 0-38.294 0-62.278 31.225-43.103 56.196 0 0 0 0 0 0z"  horiz-adv-x="1024" />

    
    <glyph glyph-name="wujiaoxing" unicode="&#58882;" d="M575.288274 841.655865l105.920745-224.219877c9.308949-19.724908 27.323024-33.411579 48.154942-36.581654l236.849856-35.927512c52.482345-7.950346 73.414901-75.32701 35.474644-114.022047l-171.385301-174.505057c-15.095593-15.347186-21.938929-37.48739-18.416624-59.174725l40.45619-246.410399c8.956719-54.595729-45.890603-96.259566-92.837898-70.446101l-211.84149 116.336704c-18.617898 10.214685-40.909057 10.214685-59.526956 0l-211.84149-116.336704c-46.947295-25.763146-101.794616 15.850373-92.837898 70.446101l40.45619 246.410399c3.572624 21.687335-3.32103 43.827539-18.416624 59.174725l-171.385301 174.505057c-37.990576 38.644718-17.007702 106.021382 35.474644 114.022047l236.849856 35.927512c20.831919 3.170075 38.845993 16.856746 48.154942 36.581654l105.920745 224.219877C483.959936 891.370685 551.789468 891.370685 575.288274 841.655865z"  horiz-adv-x="1024" />

    
    <glyph glyph-name="erweima1" unicode="&#58933;" d="M359.364098 270.2192H74.927298c-31.425839 0-56.912533-25.454695-56.912534-56.880533v-284.448534C18.015831-102.536772 43.501459-127.9904 74.928364-127.9904h284.4336c31.423705 0 56.911466 25.453628 56.911467 56.880533V213.338667c0 31.423705-25.485628 56.880533-56.9104 56.880533z m0-312.874933c0-15.726786-12.728414-28.454133-28.426401-28.454134H103.353698c-15.69692 0-28.424267 12.728414-28.424267 28.454134V184.896267c0 15.700119 12.727347 28.4424 28.424267 28.4424h227.583999c15.697986 0 28.4264-12.741214 28.426401-28.4424v-227.552z m184.8836 312.874933h-28.4264c-7.84846 0-14.242-6.362607-14.242-14.212133v-256.008267c0-7.850593 6.39354-14.2132 14.243066-14.2132h28.4264c7.84846 0 14.243066 6.362607 14.243067 14.214267V256.006c0 7.850593-6.394607 14.2132-14.243067 14.2132z m-28.4264 227.570133h28.4264c7.849526 0 14.244133 6.362607 14.244133 14.211067V881.7708c0 7.850593-6.394607 14.2292-14.243067 14.2292h-28.4264c-7.850593 0-14.243066-6.378607-14.243066-14.2292v-369.7704c0.001067-7.84846 6.394607-14.211067 14.243066-14.211067z m-440.892934 0h284.4336c31.423705 0 56.911466 25.469628 56.911467 56.880534V839.1184C416.273431 870.528239 390.787803 896 359.361964 896H74.927298C43.503592 896 18.015831 870.528239 18.015831 839.1184V554.669867c0.002133-31.413039 25.486694-56.880533 56.912533-56.880534z m0 312.873867c0 15.711853 12.727347 28.454133 28.4232 28.454133h227.585067c15.697986 0 28.425334-12.742281 28.425333-28.454133v-227.553067c0-15.715053-12.727347-28.4424-28.425333-28.4424H103.353698c-15.69692 0-28.424267 12.727347-28.424267 28.4424V810.6632h-0.001067zM714.920231 184.881333h-28.454133c-7.850593 0-14.211067-6.36474-14.211067-14.211066v-284.450667c0-7.846326 6.36154-14.211067 14.211067-14.211067h28.454133c7.849526 0 14.211067 6.365807 14.211067 14.211067V170.671333c0.001067 7.846326-6.36154 14.211067-14.211067 14.211067z m312.892 227.568H32.259964c-7.849526 0-14.242-6.36154-14.242-14.226v-28.441333c0-7.850593 6.394607-14.228133 14.242-14.228133h995.552267c7.846326 0 14.211067 6.379674 14.211067 14.228133V398.223333c0.001067 7.863393-6.36474 14.226-14.211067 14.226zM985.142764 895.997867H700.708098c-31.425839 0-56.911466-25.470695-56.911467-56.880534v-284.4496c0-31.409839 25.485628-56.879467 56.911467-56.879466h284.434666c31.423705 0 56.880533 25.469628 56.880534 56.879466V839.1184C1042.024364 870.527172 1016.56647 895.998933 985.142764 895.998933z m0-312.887734c0-15.715053-12.728414-28.4424-28.456266-28.4424H729.132364c-15.695853 0-28.424267 12.727347-28.424266 28.4424V810.6632c0 15.711853 12.728414 28.454133 28.424266 28.454133h227.554134c15.728919 0 28.456267-12.742281 28.456266-28.454133v-227.553067zM857.137564 184.881333h-28.4552c-7.849526 0-14.21-6.36474-14.21-14.211066v-284.450667c0-7.846326 6.36154-14.211067 14.21-14.211067h28.4552c7.850593 0 14.212133 6.365807 14.212134 14.211067V170.671333c0.002133 7.846326-6.362607 14.211067-14.212134 14.211067z m142.217334 85.3368h-28.4232c-7.852726 0-14.2452-6.362607-14.2452-14.212133v-369.7864c0-7.846326 6.392473-14.211067 14.2452-14.211067h28.4232c7.850593 0 14.242 6.365807 14.242 14.211067V256.006c0 7.850593-6.392473 14.2132-14.242 14.2132z m0 0"  horiz-adv-x="1061" />

    
    <glyph glyph-name="jiantou1" unicode="&#59005;" d="M199.554 23.477v718.531c0 39.763 31.91 71.922 71.674 71.922 18.485 0 35.206-7.096 47.872-18.486l474.125-355.33c31.4-23.81 37.994-68.641 14.183-100.297-4.052-5.571-8.873-10.385-14.19-14.183l-479.178-359.398c-31.407-23.547-76.48-17.217-100.041 14.437-9.881 12.922-14.438 27.865-14.439 42.805v0h-0.007zM199.554 23.477z"  horiz-adv-x="1024" />

    
    <glyph glyph-name="dianhua-1" unicode="&#58897;" d="M888.344 211.504c-30.83 21.66-63.121 41.697-90.912 56.415-44.999 23.828-64.295 26.582-74.894 26.582-21.402 0-39.948-11.206-55.154-33.314-10.007-14.554-17.548-32.038-24.831-48.943-4.909-11.389-12.76-29.592-18.264-36.53-10.238 2.426-34.925 13.018-76.764 41.615-39.017 26.656-81.276 61.138-113.148 92.277-31.036 31.982-65.391 74.389-91.961 113.534-28.507 42-39.052 66.779-41.473 77.032 6.922 5.535 25.056 13.402 36.421 18.34 16.838 7.311 34.253 14.87 48.762 24.904 22.032 15.254 33.209 33.876 33.209 55.34 0 10.632-2.746 30.003-26.5 75.157-14.67 27.887-34.631 60.283-56.222 91.221-16.068 23.047-40.595 56.101-66.159 82.692-28.898 30.077-50.89 43.485-71.301 43.485-49.724 0-108.246-73.127-124.995-95.544-21.465-28.714-71.397-103.073-71.397-173.138 0-65.478 43.467-150.001 79.94-209.377 48.837-79.522 116.394-165.195 190.227-241.231l24.332-24.424c75.784-74.080 161.155-141.879 240.401-190.881 59.175-36.6 143.416-80.211 208.657-80.211 69.819 0 143.927 50.098 172.56 71.644 22.337 16.8 95.206 75.528 95.206 125.42 0 20.49-13.368 42.551-43.331 71.556-26.499 25.64-59.445 50.251-82.411 66.379zM934.978 43.521c-13.948-16.149-33.394-33.743-54.755-49.547-48.743-36.036-98.789-57.552-133.902-57.552-39.418 0-104.047 25.989-177.324 71.309-75.587 46.731-157.225 111.589-229.922 182.646l-23.525 23.596c-70.809 72.951-135.438 154.869-182.021 230.72-45.16 73.535-71.051 138.388-71.051 177.939 0 35.234 21.429 85.457 57.351 134.356 15.742 21.436 33.272 40.955 49.369 54.937 15.105 13.126 24.963 17.927 28.943 19.154 10.855-5.075 44.815-35.211 93.182-105.551 18.958-27.589 36.398-56.118 49.075-80.318 15.92-30.399 18.672-43.061 19.127-45.956-0.764-1.136-3.534-4.445-11.934-9.473-9.416-5.632-21.885-11.046-33.943-16.281-14.98-6.503-30.462-13.219-42.912-21.487-20.358-13.54-30.48-30.142-30.071-49.381 0.189-9.209 0.791-37.207 52.389-113.229 28.495-41.966 65.433-87.534 98.826-121.907l0.533-0.526c34.235-33.513 79.666-70.581 121.48-99.174 75.766-51.772 103.67-52.365 112.835-52.563 0.367-0.012 0.723-0.012 1.061-0.012 18.838 0.006 35.107 10.271 48.36 30.484 8.143 12.446 14.789 27.849 21.212 42.751 5.219 12.107 10.609 24.625 16.223 34.069 5.022 8.437 8.315 11.2 9.445 11.981 2.879-0.459 15.506-3.217 45.796-19.196 24.12-12.73 52.552-30.216 80.049-49.253 70.088-48.521 100.121-82.601 105.19-93.503-1.222-3.986-6.005-13.877-19.085-29.034zM505.279 534.578c2.093-11.946 13.441-19.928 25.34-17.818 32.882 5.82 65.833-0.814 92.785-18.666 26.586-17.599 44.162-44.082 49.518-74.549 1.875-10.666 11.108-18.156 21.528-18.156 1.262 0 2.547 0.108 3.831 0.338 11.905 2.105 19.847 13.494 17.749 25.439-7.466 42.482-31.798 79.269-68.516 103.578-36.329 24.074-80.542 33.049-124.487 25.266-11.905-2.104-19.846-13.493-17.747-25.432zM530.619 660.716c63.068 11.165 126.339-1.594 178.162-35.922 51.44-34.069 85.497-85.405 95.889-144.552 1.869-10.655 11.108-18.143 21.528-18.143 1.262 0 2.54 0.108 3.826 0.331 11.898 2.099 19.852 13.494 17.749 25.439-12.495 71.142-53.297 132.796-114.886 173.574-61.2 40.549-135.732 55.642-209.858 42.534-11.905-2.104-19.847-13.506-17.747-25.444 2.096-11.938 13.441-19.923 25.34-17.817zM1023.66 504.242c-19.841 112.931-84.649 210.814-182.491 275.621-97.458 64.544-216.182 88.578-334.296 67.675-11.907-2.105-19.848-13.494-17.75-25.433 2.094-11.945 13.442-19.922 25.337-17.817 107.057 18.947 214.523-2.752 302.595-61.085 87.711-58.079 145.767-145.658 163.5-246.582 1.869-10.654 11.114-18.149 21.533-18.149 1.263 0 2.541 0.109 3.826 0.344 11.905 2.098 19.854 13.487 17.749 25.427zM1023.66 504.242z"  horiz-adv-x="1024" />

    
    <glyph glyph-name="shouye" unicode="&#58920;" d="M838.668 341.584l-321.154 344.25c-0.257 0.259-6.271 7.094-14.762 7.094-9.994 0-14.717-6.834-14.972-7.094l-321.157-344.25h0.587l-25.983-27.94v-379.981c0 0 29.61-0.688 66.166-0.688h166.18c-0.156 1.953-0.252 3.929-0.252 5.928v253.514c0 36.572 27.088 66.226 60.489 66.226h139.793c33.401 0 60.494-29.655 60.494-66.226v-253.516c0-1.999-0.097-3.975-0.258-5.928h163.947c36.56 0 66.202 0.688 66.202 0.688v379.983l-25.983 27.94h0.663zM577.303 830.973c-41.433 41.512-108.653 41.512-150.085 0l-422.006-422.631c15.618-30.444 43.5-53.539 77.112-62.757l398.947 397.805c2.494 2.477 4.934 4.655 7.344 6.478 4.795 4.297 9.425 6.095 14.032 5.92 4.607 0.174 9.237-1.623 14.033-5.92 2.412-1.823 4.851-3.999 7.345-6.478l399.010-397.865c33.452 9.098 61.24 31.94 76.966 62.097l-422.698 423.351z"  horiz-adv-x="1000" />

    
    <glyph glyph-name="lianjie1" unicode="&#59207;" d="M1005.056 135.68c-3.072 64-31.232 125.44-78.848 173.056l-46.592 46.592-0.512 0.512-31.744 31.744c-25.088 24.576-65.536 24.576-90.112 0-25.088-25.088-25.088-65.536 0-90.624l21.504-21.504 57.344-57.344c25.088-25.088 39.936-56.832 41.472-88.576 1.024-22.016-3.584-53.248-30.72-80.384-25.6-25.6-54.784-30.72-74.752-30.72-33.792 0-68.096 15.36-94.208 41.472l-197.632 197.632c-49.664 49.664-54.272 125.44-10.752 168.96 25.088 25.088 25.088 65.536 0 90.624-25.088 25.088-65.536 25.088-90.624 0-45.056-45.056-67.072-104.448-67.072-165.376 0-65.536 26.112-133.12 77.824-184.832l197.632-197.632c50.176-50.176 117.248-78.848 184.832-78.848 62.464 0 121.344 24.064 165.376 68.096 46.592 47.616 70.656 110.592 67.584 177.152zM268.8 468.992c-0.512 0.512-0.512 0.512 0 0L215.04 522.24l-27.136 27.136c-25.088 25.088-39.936 56.832-41.472 88.576-1.024 22.016 3.584 53.248 30.72 80.384 25.6 25.6 54.784 30.72 74.752 30.72 33.792 0 68.096-14.848 94.208-41.472l197.632-197.632c49.664-49.664 54.272-125.44 10.752-168.96-25.088-25.088-25.088-65.536 0-90.624 25.088-25.088 65.536-25.088 90.624 0 45.056 45.056 67.072 104.448 67.072 165.376 0 66.048-26.112 133.12-77.824 184.832L437.248 798.208C387.072 848.384 320 877.056 252.416 877.056 189.952 877.056 131.072 852.992 87.04 808.96 39.936 761.856 15.872 698.88 18.944 632.32 22.016 568.32 50.176 506.88 97.792 459.264l26.624-26.624 0.512-0.512L177.664 378.88c25.088-24.576 65.536-24.576 90.112 0 25.088 25.088 25.6 65.024 1.024 90.112z"  horiz-adv-x="1024" />

    
    <glyph glyph-name="shoucang" unicode="&#58972;" d="M833.59744 487.23968l-187.55584 37.70368-93.81888 166.72768c-22.13888 39.34208-58.22464 39.46496-80.42496 0l-93.81888-166.72768-187.55584-37.70368c-44.25728-8.88832-55.52128-43.17184-24.86272-76.4928l129.57696-140.73856-22.09792-190.03392c-5.2224-44.83072 23.90016-66.1504 65.06496-47.26784L512 112.4352l173.89568-79.74912c41.04192-18.82112 70.28736 2.29376 65.06496 47.26784l-22.09792 190.03392 129.57696 140.73856c30.57664 33.23904 19.5584 67.584-24.84224 76.51328z m-5.28384-48.7424l-142.29504-154.56256 24.2688-208.6912c0.36864-3.23584 0.4096-5.91872 0.24576-8.00768a40.3456 40.3456 0 0 0-7.53664 2.70336L512 157.51168l-190.976-87.57248a40.3456 40.3456 0 0 0-7.53664-2.70336 40.71424 40.71424 0 0 0 0.22528 8.00768l24.2688 208.6912-142.29504 154.56256a40.05888 40.05888 0 0 0-4.89472 6.32832c1.9456 0.8192 4.5056 1.61792 7.68 2.2528l205.96736 41.41056 103.03488 183.0912c1.59744 2.82624 3.13344 5.03808 4.5056 6.61504 1.37216-1.59744 2.92864-3.7888 4.52608-6.61504l103.03488-183.0912 205.96736-41.41056c3.19488-0.63488 5.75488-1.4336 7.68-2.2528a39.75168 39.75168 0 0 0-4.87424-6.32832z"  horiz-adv-x="1024" />

    
    <glyph glyph-name="weimingming-" unicode="&#59243;" d="M766.6 177.087l17.883-60.512-65.389 36.307c-23.843-5.961-47.687-12.102-71.53-12.102-113.437 0-202.849 78.575-202.849 175.213s89.413 175.393 202.849 175.393c107.114 0 202.488-78.755 202.488-175.393 0.181-54.189-35.584-102.418-83.452-138.906zM414.911 261.803c-29.804 0-53.648 6.141-83.452 12.102l-83.452-42.448 23.843 72.614c-59.789 42.268-95.373 96.638-95.373 163.11 0 114.882 107.295 205.559 238.434 205.559 117.23 0 220.009-72.253 240.601-169.613-7.587 0.903-15.173 1.445-22.94 1.445-113.256 0-202.669-85.619-202.669-191.108 0-17.702 2.709-34.501 7.406-50.757-7.406-0.723-14.812-0.903-22.398-0.903zM512.993 853.552c-259.567 0-470.003-210.255-470.003-469.642s210.074-469.642 469.642-469.642 469.642 210.616 469.642 470.184-209.713 469.1-469.281 469.1zM337.42 569.96c-17.883 0-35.946-12.102-35.946-30.165s18.063-30.165 35.946-30.165c17.883 0 29.804 12.102 29.804 30.165 0.181 18.244-11.922 30.165-29.804 30.165zM504.323 509.629c18.063 0 29.985 12.102 29.985 30.165 0 18.244-11.922 30.165-29.985 30.165-17.883 0-35.765-11.922-35.765-30.165 0-18.063 17.883-30.165 35.765-30.165zM712.953 394.748c-11.741 0-23.663-12.102-23.663-24.205s11.922-24.024 23.663-24.024c17.883 0 29.804 12.102 29.804 24.024 0.181 12.102-11.741 24.205-29.804 24.205zM581.814 394.748c-11.741 0-23.843-12.102-23.843-24.205s12.102-24.024 23.843-24.024c18.063 0 29.804 12.102 29.804 24.024 0.181 12.102-11.741 24.205-29.804 24.205z"  horiz-adv-x="1024" />

    
    <glyph glyph-name="naiping" unicode="&#58902;" d="M807 498.4c20.4 25.8 33 58.2 33 93.4 0 83.8-68.6 152-153 152H622v7c0 60.8-49.2 110.2-109.8 111H510.4c-61-0.4-110.4-50-110.4-110.8V744h-64.4C251 744 182 675.8 182 592c0-35.2 12.4-67.8 33-93.6-50.2-14-87-60.2-87-114.8v-356C128-38 181-92 246.8-92h529c65.8 0 118.2 54 118.2 119.6v356c0 54.8-36.6 101-87 114.8zM335.6 680H432c17.6 0 32 14.4 32 32V751c0 25.4 21.6 46.8 47.2 47 25.8-0.2 46.8-21.2 46.8-47V712c0-17.6 14.4-32 32-32h97c49 0 89-39.4 89-88s-40-88-89-88H335.6c-49.4 0-89.6 39.4-89.6 88s40.2 88 89.6 88zM832 27.2c0-30.6-24.8-55.2-55.2-55.2H247.2c-30.6 0-55.2 24.8-55.2 55.2V382.8c0 30.6 24.8 55.2 55.2 55.2h529.6c30.6 0 55.2-24.8 55.2-55.2v-355.6zM302.2 304H392c17.6 0 32 14.4 32 32s-14.4 32-32 32h-89.8c-17.6 0-32-14.4-32-32s14.4-32 32-32zM486 244h-183.6c-17.6 0-32-14.4-32-32s14.4-32 32-32H486c17.6 0 32 14.4 32 32s-14.4 32-32 32zM392.2 116h-89.8c-17.6 0-32-14.4-32-32s14.4-32 32-32h89.8c17.6 0 32 14.4 32 32s-14.4 32-32 32z"  horiz-adv-x="1024" />

    
    <glyph glyph-name="shouji1" unicode="&#58918;" d="M295.541575 794.44607l432.91685 0c25.829272 0 46.961568-24.614607 46.961568-54.697763l0-711.494567c0-30.082132-21.131273-54.698786-46.961568-54.698786L295.541575-26.445046c-25.829272 0-46.961568 24.616654-46.961568 54.698786l0 711.494567C248.580007 769.831462 269.71128 794.44607 295.541575 794.44607L295.541575 794.44607zM450.042391 76.527187c-10.126638 0-18.412348-8.286734-18.412348-18.414395l0-26.878161c0-10.124592 8.286734-18.411325 18.412348-18.411325L566.106804 12.823306c10.128685 0 18.413372 8.287757 18.413372 18.411325l0 26.878161c0 10.127661-8.284687 18.414395-18.413372 18.414395L450.042391 76.527187 450.042391 76.527187zM325.723991 723.681376l0-607.311763 373.546671 0 0 607.311763L325.723991 723.681376z"  horiz-adv-x="1024" />

    
    <glyph glyph-name="licai-copy" unicode="&#58888;" d="M560.254 163.753h-97.045c-304.368 0-463.168 231.584-463.168 231.584 11.028-46.317 26.467-167.623 123.512-355.096 92.634-185.267 341.862-167.623 388.179-167.623 39.7 0 295.546-19.85 388.179 165.417 94.839 187.473 110.278 308.779 123.512 355.096 0 2.206-163.212-229.379-463.168-229.379zM110.319 346.815c44.111-37.495 94.839-68.372 152.184-90.428 70.578-26.467 152.184-39.7 238.201-39.7 306.573 0 390.385 114.689 460.963 205.117 17.645 22.056 33.083 44.111 50.728 61.756 4.411 4.411 8.822 13.233 6.617 19.85-2.206 6.617-6.617 13.233-13.233 17.645-4.411 2.206-90.428 48.522-211.734-79.4-2.206 11.028-6.617 19.85-11.028 30.878-6.617 17.645-15.439 35.289-24.261 52.934-8.822 17.645-19.85 33.083-33.083 48.522-13.233 15.439-26.467 30.878-41.906 44.111-15.439 13.233-33.083 24.261-52.934 33.083-4.411 2.206-8.822 4.411-15.439 6.617-4.411 2.206-8.822 4.411-15.439 6.617-4.411 2.206-11.028 4.411-15.439 4.411-4.411 2.206-11.028 2.206-15.439 4.411-11.028 2.206-22.056 4.411-30.878 4.411h-35.289c-19.85 0-41.906-2.206-61.756-6.617-11.028-2.206-19.85-4.411-30.878-8.822-11.028-4.411-19.85-6.617-28.672-11.028-19.85-8.822-37.495-19.85-52.934-33.083s-30.878-28.672-44.111-44.111c-26.467-30.878-44.111-66.167-57.345-103.662-2.206-11.028-4.411-19.85-6.617-28.672-112.484 110.278-196.295 70.578-200.706 68.372-6.617-2.206-11.028-6.617-13.233-13.233-2.206-6.617-2.206-13.233 0-17.645 0-2.206 28.672-68.372 103.662-132.334zM79.441 468.121c28.672-2.206 72.784-13.233 125.717-50.728 2.206-2.206 4.411-2.206 8.822-4.411 0-4.411-2.206-8.822-2.206-13.233 0-4.411-2.206-8.822-2.206-13.233 0-8.822-2.206-19.85-2.206-28.672 8.822 17.645 15.439 33.083 24.261 50.728 8.822 15.439 17.645 30.878 28.672 46.317 19.85 30.878 41.906 57.345 66.167 81.606s52.934 41.906 81.606 55.139c30.878 13.233 61.756 19.85 94.839 19.85h24.261c8.822 0 15.439-2.206 24.261-2.206 4.411 0 8.822-2.206 11.028-2.206 4.411 0 8.822-2.206 11.028-2.206 4.411-2.206 8.822-2.206 11.028-4.411 4.411-2.206 6.617-2.206 11.028-4.411 30.878-13.233 57.345-30.878 83.811-55.139 13.233-11.028 24.261-24.261 35.289-37.495 11.028-13.233 22.056-28.672 33.083-41.906 11.028-15.439 19.85-30.878 28.672-46.317 8.822-15.439 17.645-33.083 26.467-48.522 0 8.822-2.206 19.85-4.411 28.672 0 4.411-2.206 8.822-2.206 13.233 0 4.411-2.206 8.822-2.206 13.233 4.411 0 6.617 2.206 8.822 4.411 41.906 35.289 86.017 55.139 127.923 59.55h13.233l-26.467-33.083c-66.167-88.223-141.156-187.473-423.468-187.473-145.567 0-266.873 39.7-359.507 116.895-39.7 33.083-63.961 66.167-79.4 90.428 13.233-4.411 19.85-4.411 24.261-4.411zM500.704 746.022c2.206-4.411 2.206-6.617 4.411-11.028s4.411-6.617 6.617-11.028c2.206 4.411 4.411 6.617 6.617 11.028 2.206 4.411 4.411 6.617 4.411 11.028 2.206 6.617 4.411 13.233 6.617 22.056 4.411 13.233 6.617 26.467 6.617 41.906s-2.206 28.672-6.617 41.906c-2.206 6.617-4.411 13.233-6.617 22.056-2.206 4.411-2.206 6.617-4.411 11.028-2.206 2.206-4.411 6.617-6.617 11.028-2.206-4.411-4.411-6.617-6.617-11.028-2.206-4.411-4.411-6.617-4.411-11.028-2.206-6.617-4.411-13.233-6.617-22.056-4.411-13.233-4.411-28.672-4.411-41.906s0-28.672 4.411-44.111c0-6.617 2.206-13.233 6.617-19.85zM633.038 708.527c6.617 2.206 13.233 6.617 19.85 11.028 13.233 6.617 24.261 15.439 35.289 26.467s19.85 22.056 26.467 33.083c4.411 6.617 6.617 13.233 11.028 19.85 2.206 4.411 2.206 6.617 4.411 11.028s2.206 8.822 2.206 13.233c-4.411 0-8.822-2.206-13.233-2.206-4.411-2.206-6.617-2.206-11.028-4.411-6.617-2.206-13.233-6.617-19.85-11.028-13.233-6.617-24.261-17.645-33.083-26.467-11.028-11.028-19.85-22.056-26.467-33.083-4.411-6.617-6.617-13.233-11.028-19.85-2.206-4.411-2.206-6.617-4.411-11.028s-2.206-8.822-2.206-13.233c4.411 0 8.822 2.206 13.233 2.206 2.206 0 4.411 2.206 8.822 4.411zM299.998 798.955c2.206-6.617 6.617-13.233 11.028-19.85 6.617-13.233 17.645-24.261 26.467-33.083 11.028-11.028 22.056-19.85 33.083-26.467 6.617-4.411 13.233-6.617 19.85-11.028 4.411-2.206 6.617-2.206 11.028-4.411s8.822-2.206 13.233-2.206c0 4.411-2.206 8.822-2.206 13.233-2.206 4.411-2.206 6.617-4.411 11.028-4.411 4.411-6.617 11.028-11.028 17.645-6.617 13.233-17.645 24.261-26.467 33.083s-22.056 19.85-33.083 26.467c-6.617 4.411-13.233 6.617-19.85 11.028-4.411 2.206-6.617 2.206-11.028 4.411s-8.822 2.206-13.233 2.206c0-4.411 2.206-8.822 2.206-13.233 2.206-2.206 2.206-4.411 4.411-8.822z"  horiz-adv-x="1032" />

    
    <glyph glyph-name="weiBo" unicode="&#58934;" d="M612.572 641.783c-18.598-8.136-22.865-27.512-9.299-41.074 6.587-6.591 12.784-7.753 39.912-7.753 37.976 0 63.551-10.073 82.93-32.55 23.638-26.737 26.35-34.877 26.35-83.7 0-43.401 0-44.179 10.073-49.988 23.252-13.176 38.754 3.099 44.176 46.499 6.975 56.577-26.738 122.455-77.498 152.681-33.329 19.375-90.295 27.124-116.645 15.885v0 0zM421.914 569.706c-43.401-15.499-85.254-45.339-130.203-93.387-106.565-113.155-99.59-220.883 17.826-278.234 122.067-59.675 286.37-39.912 375.887 45.339 67.037 63.553 58.903 143.382-17.438 170.506-13.566 4.651-17.826 8.139-15.89 12.399 6.975 17.051 9.299 36.815 5.426 48.439-12.017 36.813-55.802 45.338-120.906 23.248l-25.962-8.911 2.324 25.962c2.714 30.613-3.873 47.278-22.089 56.579-15.108 7.747-44.172 6.974-68.974-1.941v0 0zM529.645 419.739c57.738-15.889 93.002-50.763 93.002-92.224 0-46.115-41.078-87.581-107.73-109.667-35.652-11.626-101.914-13.95-134.468-5.039-61.611 17.436-96.489 51.539-96.489 95.33 0 24.026 10.464 44.948 33.327 66.259 21.311 20.15 37.586 29.842 68.974 40.303 47.279 15.889 98.046 17.825 143.383 5.038v0zM407.579 382.154c-39.138-18.217-60.065-46.116-60.065-80.99 0-31.779 13.953-53.478 44.563-69.755 23.638-12.787 67.041-11.626 93.393 1.937 33.712 17.826 55.802 50.763 55.802 82.933-0.394 26.347-23.641 57.735-51.151 68.973-22.090 9.295-59.295 7.749-82.542-3.099v0 0zM435.868 309.302c2.711-2.712 4.648-9.299 4.648-15.112 0-19.378-32.55-35.264-45.725-22.089-7.363 7.363-5.426 25.579 3.099 34.103 8.524 8.523 30.613 10.461 37.979 3.099v0zM619.159 562.346c-17.826-17.829-5.813-39.14 22.477-39.14 24.411 0 35.259-12.4 35.259-40.303 0-17.435 1.555-22.474 8.53-27.125 20.925-14.724 37.976 1.549 37.976 36.039 0 42.239-30.226 74.015-73.241 77.116-19.379 1.55-24.027 0.388-31.001-6.587v0 0zM619.159 562.346zM891.086 181.678c62.464 106.035 77.715 236.226 41.44 353.855-34.56 112.067-115.156 207.813-219.454 261.327-110.072 56.476-242.887 64.131-358.392 19.386-109.517-42.424-200.169-128.146-246.424-236.409-24.677-57.758-37.17-119.934-36.058-182.805 1.104-62.493 16.008-123.74 42.396-180.279 49.679-106.441 143.684-188.67 254.087-227.404 116.918-41.020 249.385-28.319 357.473 31.515 16.786 9.293 32.864 19.845 48.21 31.352 4.989 3.74 8.795 7.424 10.514 13.674 1.625 5.905 0.789 12.346-2.307 17.63-5.762 9.836-21.301 15.709-31.305 8.208-23.292-17.465-48.276-32.489-74.639-44.842-3.176-1.488-6.38-2.915-9.593-4.322-0.915-0.4-6.421-2.709-0.989-0.439-1.618-0.676-3.244-1.331-4.87-1.987-7.045-2.84-14.187-5.441-21.377-7.89-13.829-4.709-27.931-8.6-42.177-11.827-6.841-1.549-13.73-2.882-20.639-4.082-3.486-0.606-6.984-1.144-10.485-1.66-6.197-0.914 4.98 0.625-1.232-0.179-2.441-0.316-4.885-0.595-7.331-0.868-15.287-1.706-30.673-2.471-46.051-2.497-15.382-0.026-30.759 0.889-46.049 2.544-1.835 0.199-3.668 0.422-5.499 0.644-6.219 0.756 4.968-0.711-1.236 0.155-3.59 0.5-7.168 1.071-10.744 1.666-7.459 1.24-14.873 2.734-22.251 4.382-14.188 3.169-28.184 7.174-41.96 11.814-6.614 2.227-13.155 4.662-19.647 7.219-1.623 0.64-3.238 1.3-4.853 1.959-5.507 2.25 4.503-1.942-0.966 0.4-3.742 1.602-7.45 3.285-11.143 4.997-25.399 11.779-49.5 26.297-72.016 42.916-1.344 0.992-2.676 2.001-4.008 3.009-4.573 3.461 3.861-3.026-0.657 0.508-2.632 2.058-5.227 4.164-7.809 6.284-5.595 4.596-11.042 9.367-16.391 14.246-10.269 9.366-20.010 19.303-29.295 29.641-4.455 4.961-8.764 10.054-12.979 15.222-1.054 1.291-2.092 2.596-3.13 3.901-0.664 0.834-4.17 5.361-0.523 0.627-2.374 3.081-4.687 6.209-6.974 9.356-8.17 11.239-15.712 22.928-22.719 34.923-7.302 12.5-13.869 25.422-19.826 38.613-0.714 1.583-1.41 3.174-2.105 4.767-2.372 5.434 1.875-4.542-0.406 0.929-1.336 3.206-2.613 6.437-3.868 9.675-2.721 7.017-5.207 14.124-7.542 21.278-4.53 13.879-8.235 28.019-11.271 42.296-1.522 7.155-2.806 14.358-3.948 21.583-0.286 1.806-0.547 3.615-0.809 5.426-0.89 6.154 0.632-5.002-0.15 1.167-0.537 4.232-0.981 8.476-1.39 12.723-2.9 30.209-2.342 60.731 1.309 90.848 0.129 1.064 0.965 7.106 0.118 0.995 0.246 1.767 0.513 3.532 0.781 5.297 0.535 3.528 1.139 7.046 1.765 10.56 1.356 7.613 2.973 15.178 4.75 22.703 3.419 14.474 7.703 28.736 12.654 42.758 2.368 6.706 4.952 13.334 7.665 19.907-2.3-5.574-0.074-0.193 0.351 0.79 0.674 1.56 1.367 3.111 2.060 4.662 1.618 3.619 3.308 7.205 5.029 10.776 6.144 12.755 13.015 25.153 20.421 37.216 7.409 12.066 15.499 23.705 24.091 34.956-3.574-4.681-0.034-0.077 0.602 0.729 1.053 1.333 2.122 2.654 3.192 3.975 2.097 2.59 4.241 5.141 6.399 7.679 4.677 5.499 9.527 10.849 14.48 16.1 9.526 10.097 19.61 19.662 30.086 28.766 5.030 4.371 10.188 8.592 15.419 12.718 4.493 3.544-3.908-2.976 0.642 0.496 1.324 1.011 2.661 2.006 3.997 3 3.118 2.322 6.282 4.58 9.464 6.814 23.342 16.386 48.45 30.209 74.633 41.487-5.504-2.371-0.117-0.060 0.857 0.34 1.585 0.652 3.177 1.284 4.77 1.917 3.186 1.265 6.395 2.469 9.61 3.654 7 2.579 14.085 4.924 21.213 7.119 14.433 4.445 29.135 7.997 43.963 10.84 3.559 0.683 7.13 1.294 10.705 1.884 1.788 0.295 3.579 0.566 5.37 0.837 1.023 0.155 7.139 1 1.094 0.191 7.782 1.042 15.598 1.815 23.425 2.419 15.057 1.162 30.177 1.416 45.269 0.954 7.241-0.222 14.474-0.677 21.692-1.272 3.609-0.298 7.212-0.665 10.813-1.055 1.8-0.195 3.598-0.414 5.395-0.632 2.628-0.338 2.396-0.299-0.696 0.115 1.196-0.164 2.391-0.333 3.586-0.507 14.937-2.144 29.738-5.191 44.352-8.942 14.274-3.663 28.321-8.184 42.117-13.357 3.209-1.203 6.395-2.466 9.572-3.747 0.974-0.393 6.385-2.659 0.863-0.323 1.578-0.667 3.148-1.354 4.717-2.040 6.801-2.976 13.504-6.175 20.136-9.509 12.756-6.413 25.14-13.558 37.17-21.244 5.75-3.674 11.386-7.522 16.948-11.474 2.717-1.93 5.398-3.909 8.068-5.903 1.334-0.998 2.658-2.011 3.98-3.024-4.959 3.799 1.002-0.833 1.921-1.567 21.705-17.322 41.57-36.918 59.432-58.17 2.144-2.551 4.243-5.14 6.325-7.741 1.048-1.309 2.079-2.631 3.112-3.952-3.652 4.678-0.123 0.124 0.51-0.713 4.392-5.815 8.596-11.772 12.678-17.809 7.85-11.61 15.043-23.658 21.686-35.995 3.189-5.923 6.198-11.941 9.096-18.010 1.449-3.035 2.843-6.097 4.218-9.166 0.688-1.535 1.356-3.078 2.025-4.621 0.997-2.334 0.884-2.061-0.339 0.82 0.431-1.035 0.859-2.072 1.281-3.111 5.557-13.573 10.298-27.472 14.38-41.555 3.777-13.033 6.83-26.27 9.316-39.607 0.649-3.48 1.231-6.972 1.792-10.466 0.28-1.748 0.538-3.499 0.796-5.25 0.883-5.998-0.642 5.080 0.14-0.933 0.913-7.023 1.602-14.074 2.156-21.133 2.224-28.327 1.392-56.87-2.116-85.055-0.341-2.629-0.309-2.401 0.098 0.685-0.248-1.798-0.519-3.593-0.789-5.388-0.542-3.59-1.153-7.168-1.789-10.743-1.271-7.15-2.774-14.256-4.419-21.328-3.134-13.483-7.037-26.782-11.512-39.878-2.228-6.519-4.658-12.968-7.207-19.369-0.638-1.6-1.294-3.193-1.951-4.784 2.278 5.518 0.026 0.081-0.388-0.875-1.367-3.162-2.793-6.298-4.238-9.426-5.781-12.51-12.257-24.691-19.25-36.564-6.333-10.751-2.515-25.023 8.208-31.305 10.782-6.315 24.98-2.515 31.3 8.212v0z"  horiz-adv-x="1024" />

    
    <glyph glyph-name="weibo" unicode="&#58913;" d="M471.184409 387.385097c-88.842421-4.102435-160.687726-51.700499-160.687726-111.076818 0-59.305711 71.845305-103.859439 160.687726-99.706863 88.938612 4.037966 160.912853 59.696614 160.912853 118.991068-0.001023 59.242266-71.974241 95.879698-160.912853 91.792613z m60.556191-149.335167c-27.213805-35.129078-81.056084-52.284807-133.359311-23.967878-24.876574 13.508665-23.953551 40.023552-23.953551 40.023552s-10.348696 83.718727 79.044264 94.163613c89.49222 10.395768 105.48138-75.091232 78.268598-110.219287zM429.438633 282.601612c-16.70445-1.737574-28.640294-16.300244-28.640294-30.197766 0-13.964036 13.427824-23.580045 30.132274-21.620413 16.606213 1.88493 30.133298 14.7264 30.133298 28.643364 0 13.945617-12.45466 25.006534-31.625278 23.174815zM471.783043 294.100504c-5.725398-4.152577-6.894014-12.066827-3.77907-17.010419 2.984984-5.080715 9.957793-5.664 15.600303-1.431605 5.51562 4.366448 7.6574 11.955286 4.67344 17.016558-2.984984 4.944616-9.859555 6.355755-16.494673 1.425466zM512 830.89726c-246.814292 0-446.89726-200.082968-446.89726-446.89726s200.082968-446.89726 446.89726-446.89726 446.89726 200.082968 446.89726 446.89726S758.814292 830.89726 512 830.89726zM711.529359 256.247384c-36.649711-77.81425-157.441798-115.699092-246.963695-108.676141-85.078701 6.698562-194.46911 34.95-205.77255 137.900743 0 0-5.966898 46.642297 39.247886 106.974383 0 0 65.00041 90.804099 140.738372 116.720352 75.80243 25.76992 84.625376-17.857716 84.625376-43.642986-4.019547-21.895683-11.546987-34.756595 16.898878-25.91523 0 0 74.504878 34.542724 105.158015 3.890611 24.749684-24.746614 4.087085-58.788941 4.087085-58.788941s-10.249435-11.367909 10.868535-15.456017c21.176298-4.216022 87.73418-35.062564 51.112098-113.006774z m-73.463152 214.986399c-8.110725 0-14.631232 6.551206-14.631232 14.612813 0 8.188496 6.520507 14.739702 14.631232 14.739702 0 0 91.319845 16.901948 80.406285-81.250512 0-0.583285-0.064468-1.038656-0.194429-1.557472-1.038656-6.940063-7.15291-12.276604-14.352892-12.276604-8.123005 0-14.742772 6.503111-14.742773 14.611789 0 0 14.467503 65.600067-51.116191 51.120284z m154.392346-78.496795h-0.130983c-2.400676-16.60519-10.653641-17.937534-20.467147-17.937534-11.741415 0-21.243837 7.397481-21.243837 19.138896 0 10.183943 4.213975 20.529569 4.213975 20.529569 1.251503 4.282536 11.1919 30.945803-6.551206 70.743204-32.469506 54.555523-97.889471 55.367005-105.61134 52.251038-7.783267-3.047406-19.295462-4.603855-19.295462-4.603855-11.809977 0-21.295002 9.633405-21.295002 21.311375 0 9.825786 6.569626 18.131963 15.520486 20.659529 0 0 0.191358 0.324388 0.518816 0.389879 0.647753 0.12996 1.298576 0.796132 2.01182 0.860601 9.097192 1.734504 41.581024 8.123005 73.141834 0.728594 56.503898-13.199627 134.058229-67.820642 99.188046-184.071296z"  horiz-adv-x="1024" />

    
    <glyph glyph-name="shoujihuafeichongzhi" unicode="&#58883;" d="M826.249 39.748c0-17.105-3.421-33.006-10.26-47.717-6.839-14.707-16.246-27.707-28.222-38.99-11.97-11.289-25.995-20.182-42.067-26.68-16.076-6.496-33.35-9.748-51.817-9.748H329.616c-18.468 0-35.743 3.252-51.818 9.748-16.073 6.498-30.096 15.391-42.072 26.68-11.969 11.283-21.374 24.283-28.216 38.99-6.839 14.711-10.259 30.611-10.259 47.717V727.23c0 17.101 3.42 33.176 10.259 48.225 6.842 15.052 16.247 28.22 28.216 39.506 11.976 11.29 26 20.182 42.072 26.677 16.076 6.5 33.352 9.75 51.818 9.75h364.267c18.468 0 35.741-3.25 51.817-9.75 16.072-6.496 30.097-15.387 42.067-26.677 11.976-11.286 21.383-24.454 28.222-39.506 6.839-15.049 10.26-31.124 10.26-48.225v-687.482m-83.111 638.227h-463.8v-587.95h463.8v587.95M511.236 61.293c-14.367 0-26.851-5.131-37.454-15.391-10.603-10.26-15.902-22.918-15.902-37.965 0-14.367 5.299-26.848 15.902-37.453 10.604-10.605 23.088-15.906 37.454-15.906 15.052 0 27.703 5.301 37.968 15.906 10.26 10.605 15.393 23.086 15.393 37.453 0 15.047-5.133 27.705-15.393 37.965-10.265 10.26-22.916 15.391-37.968 15.391m82.085 703.9c0 5.473-1.709 9.749-5.128 12.826-3.42 3.083-7.186 4.618-11.284 4.618H446.592c-3.421 0-7.011-1.536-10.773-4.618-3.764-3.077-5.642-7.353-5.642-12.826 0-5.473 1.71-9.748 5.129-12.824 3.421-3.078 7.185-4.618 11.286-4.618h130.317c4.099 0 7.864 1.54 11.284 4.618 3.419 3.076 5.128 7.351 5.128 12.824m0 0zM676.082 540.935H617.73l-65.608-88.306c-17.497-23.932-28.198-39.839-32.105-47.722H518.9c-11.543 19.17-44.113 64.511-97.716 136.027h-61.701l114.746-143.981h-94.086v-31.814h110.279v-43.848h-110.28v-32.223h110.279v-63.833h54.719v63.833h106.371v32.223h-106.37v43.848h106.371v31.814h-91.294l115.864 143.982z"  horiz-adv-x="1024" />

    
    </font>
</defs>
</svg>
