<?xml version="1.0" standalone="no"?><!DOCTYPE svg PUBLIC "-//W3C//DTD SVG 1.1//EN" "http://www.w3.org/Graphics/SVG/1.1/DTD/svg11.dtd"><svg t="1525312339880" class="icon" style="" viewBox="0 0 1024 1024" version="1.1" xmlns="http://www.w3.org/2000/svg" p-id="1113" xmlns:xlink="http://www.w3.org/1999/xlink" width="200" height="200"><defs><style type="text/css"></style></defs><path d="M812.373333 336.7936a300.373333 300.373333 0 1 0-600.712533 0c0 165.888 300.373333 550.673067 300.373333 550.673067S812.373333 502.6816 812.373333 336.7936z m-300.3392-250.299733c138.24 0 250.299733 114.688 250.299734 256.2048 0 141.482667-250.299733 469.7088-250.299734 469.7088S261.700267 484.1472 261.700267 342.698667c0-141.5168 112.059733-256.2048 250.333866-256.2048z m100.113067 250.299733a100.1472 100.1472 0 1 0-200.260267 0 100.1472 100.1472 0 0 0 200.260267 0z m-150.186667 0a50.0736 50.0736 0 1 1 100.181334 0 50.0736 50.0736 0 0 1-100.181334 0z m199.3728 407.552c-4.5056 7.133867-21.265067 40.413867-24.1664 46.728533 159.914667 9.864533 275.319467 38.126933 275.319467 71.406934 0 41.472-179.336533 75.0592-400.452267 75.0592-221.184 0-400.520533-33.5872-400.520533-75.0592 0-33.211733 115.063467-61.405867 274.500267-71.338667-3.413333-6.417067-19.490133-38.8096-24.2688-46.728533-174.933333 17.2032-300.305067 63.522133-300.305067 118.0672 0 69.12 201.728 125.1328 450.594133 125.1328 248.832 0 450.525867-56.0128 450.525867-125.1328 0-54.613333-125.781333-101.000533-301.226667-118.135467z" p-id="1114"></path></svg>